<svg width="1192" height="64" viewBox="0 0 1192 64" fill="none" xmlns="http://www.w3.org/2000/svg">
<g filter="url(#filter0_i_98_2109)">
<g clip-path="url(#clip0_98_2109)">
<path d="M0 0H1192V64H0V0Z" fill="white"/>
<mask id="mask0_98_2109" style="mask-type:luminance" maskUnits="userSpaceOnUse" x="0" y="0" width="1192" height="64">
<path d="M1192 0H0V64H1192V0Z" fill="white"/>
</mask>
<g mask="url(#mask0_98_2109)">
<path d="M0 0H1192V64H0V0Z" fill="#140C22"/>
<path d="M130.499 -28C104.943 -28 42 34.5856 42 59.9994C42 85.4133 104.943 148 130.499 148C156.056 148 219 85.4122 219 59.9994C219 34.5865 156.057 -28 130.499 -28ZM116.708 110.321C105.931 107.401 76.9565 57.0025 79.8937 46.2864C82.8309 35.5696 133.514 6.75895 144.291 9.67928C155.069 12.5996 184.044 62.997 181.107 73.7137C178.169 84.4299 127.485 113.241 116.708 110.321Z" fill="#836EF9"/>
<path d="M972 -18C952.364 -18 904 30.0059 904 49.4995C904 68.9931 952.364 117 972 117C991.636 117 1040 68.9923 1040 49.4995C1040 30.0069 991.638 -18 972 -18ZM961.403 88.0981C953.123 85.8584 930.86 47.2009 933.117 38.9809C935.374 30.7607 974.317 8.66165 982.597 10.9019C990.88 13.1417 1013.14 51.7989 1010.89 60.019C1008.63 68.2388 969.685 90.3383 961.403 88.0981Z" fill="#836EF9"/>
</g>
<path d="M357.6 42H348.9V23.1C348.9 22.88 349.09 22.7 349.47 22.56C349.85 22.42 350.3 22.32 350.82 22.26C351.34 22.18 351.83 22.13 352.29 22.11C352.75 22.07 353.07 22.05 353.25 22.05H365.25V24.15H357.6V31.17H364.92V33.27H357.6V42ZM379.372 22.05H388.072V25.26L388.042 31.68V34.89C388.042 35.89 388.052 36.9 388.072 37.92C388.092 38.94 388.082 39.95 388.042 40.95C388.042 41.17 387.852 41.35 387.472 41.49C387.092 41.63 386.632 41.74 386.092 41.82C385.572 41.88 385.082 41.93 384.622 41.97C384.162 41.99 383.852 42 383.692 42H371.092C370.912 42 370.592 41.99 370.132 41.97C369.672 41.93 369.182 41.88 368.662 41.82C368.142 41.74 367.692 41.63 367.312 41.49C366.932 41.35 366.742 41.17 366.742 40.95V22.05H375.442V39.9H379.342C379.342 36.92 379.342 33.94 379.342 30.96C379.342 27.98 379.352 25.01 379.372 22.05ZM398.616 42H389.916V22.05H398.616V30.69L400.506 30.27L402.216 21.99L410.916 22.11L409.506 28.83C409.486 28.93 409.446 29.14 409.386 29.46C409.326 29.78 409.266 30.1 409.206 30.42C409.146 30.72 409.096 30.89 409.056 30.93C408.916 31.09 408.646 31.24 408.246 31.38C407.846 31.5 407.436 31.6 407.016 31.68C406.596 31.76 406.276 31.83 406.056 31.89L398.616 33.6V42ZM410.316 42H401.616V33.3H405.966C406.146 33.3 406.466 33.32 406.926 33.36C407.386 33.38 407.876 33.43 408.396 33.51C408.916 33.57 409.366 33.67 409.746 33.81C410.126 33.95 410.316 34.13 410.316 34.35V42ZM425.046 22.05H433.746V25.26L433.716 31.68V34.89C433.716 35.89 433.726 36.9 433.746 37.92C433.766 38.94 433.756 39.95 433.716 40.95C433.716 41.17 433.526 41.35 433.146 41.49C432.766 41.63 432.306 41.74 431.766 41.82C431.246 41.88 430.756 41.93 430.296 41.97C429.836 41.99 429.526 42 429.366 42H416.766C416.586 42 416.266 41.99 415.806 41.97C415.346 41.93 414.856 41.88 414.336 41.82C413.816 41.74 413.366 41.63 412.986 41.49C412.606 41.35 412.416 41.17 412.416 40.95V22.05H421.116V39.9H425.016C425.016 36.92 425.016 33.94 425.016 30.96C425.016 27.98 425.026 25.01 425.046 22.05ZM461.832 22.05V24.15H452.082V30.9H457.932C458.112 30.9 458.432 30.92 458.892 30.96C459.352 30.98 459.842 31.03 460.362 31.11C460.882 31.17 461.332 31.27 461.712 31.41C462.092 31.55 462.282 31.73 462.282 31.95V40.95C462.282 41.17 462.092 41.35 461.712 41.49C461.332 41.63 460.882 41.74 460.362 41.82C459.842 41.88 459.352 41.93 458.892 41.97C458.432 41.99 458.112 42 457.932 42H443.532V39.9H453.582V33H447.732C447.552 33 447.232 32.99 446.772 32.97C446.312 32.93 445.822 32.88 445.302 32.82C444.782 32.74 444.332 32.63 443.952 32.49C443.572 32.35 443.382 32.17 443.382 31.95V23.1C443.382 22.88 443.572 22.7 443.952 22.56C444.332 22.42 444.782 22.32 445.302 22.26C445.822 22.18 446.312 22.13 446.772 22.11C447.232 22.07 447.552 22.05 447.732 22.05H461.832ZM481.345 30.9V33H472.795V39.9H481.645V42H468.445C468.265 42 467.945 41.99 467.485 41.97C467.025 41.93 466.535 41.88 466.015 41.82C465.495 41.74 465.045 41.63 464.665 41.49C464.285 41.35 464.095 41.17 464.095 40.95V23.1C464.095 22.88 464.285 22.7 464.665 22.56C465.045 22.42 465.495 22.32 466.015 22.26C466.535 22.18 467.025 22.13 467.485 22.11C467.945 22.07 468.265 22.05 468.445 22.05H481.645V24.15H472.795V30.9H481.345ZM492.131 42H483.431V23.1C483.431 22.88 483.621 22.7 484.001 22.56C484.381 22.42 484.831 22.32 485.351 22.26C485.871 22.18 486.361 22.13 486.821 22.11C487.281 22.07 487.601 22.05 487.781 22.05H500.681C500.861 22.05 501.181 22.07 501.641 22.11C502.101 22.13 502.591 22.18 503.111 22.26C503.631 22.32 504.081 22.42 504.461 22.56C504.841 22.7 505.031 22.88 505.031 23.1V42H496.331V33.87H492.131V42ZM492.131 31.77H496.331V24.15H492.131V31.77ZM525.289 22.05V24.15H515.539V30.9H521.389C521.569 30.9 521.889 30.92 522.349 30.96C522.809 30.98 523.299 31.03 523.819 31.11C524.339 31.17 524.789 31.27 525.169 31.41C525.549 31.55 525.739 31.73 525.739 31.95V40.95C525.739 41.17 525.549 41.35 525.169 41.49C524.789 41.63 524.339 41.74 523.819 41.82C523.299 41.88 522.809 41.93 522.349 41.97C521.889 41.99 521.569 42 521.389 42H506.989V39.9H517.039V33H511.189C511.009 33 510.689 32.99 510.229 32.97C509.769 32.93 509.279 32.88 508.759 32.82C508.239 32.74 507.789 32.63 507.409 32.49C507.029 32.35 506.839 32.17 506.839 31.95V23.1C506.839 22.88 507.029 22.7 507.409 22.56C507.789 22.42 508.239 22.32 508.759 22.26C509.279 22.18 509.769 22.13 510.229 22.11C510.689 22.07 511.009 22.05 511.189 22.05H525.289ZM544.832 42H531.902C531.722 42 531.402 41.99 530.942 41.97C530.482 41.93 529.992 41.88 529.472 41.82C528.952 41.74 528.502 41.63 528.122 41.49C527.742 41.35 527.552 41.17 527.552 40.95V23.1C527.552 22.88 527.742 22.7 528.122 22.56C528.502 22.42 528.952 22.32 529.472 22.26C529.992 22.18 530.482 22.13 530.942 22.11C531.402 22.07 531.722 22.05 531.902 22.05H544.832C545.012 22.05 545.332 22.07 545.792 22.11C546.252 22.13 546.742 22.18 547.262 22.26C547.782 22.32 548.232 22.42 548.612 22.56C548.992 22.7 549.182 22.88 549.182 23.1V40.95C549.182 41.17 548.992 41.35 548.612 41.49C548.232 41.63 547.782 41.74 547.262 41.82C546.742 41.88 546.252 41.93 545.792 41.97C545.332 41.99 545.012 42 544.832 42ZM536.252 39.9H540.482V24.15H536.252V39.9ZM559.69 42H550.99V23.1C550.99 22.88 551.18 22.7 551.56 22.56C551.94 22.42 552.39 22.32 552.91 22.26C553.43 22.18 553.92 22.13 554.38 22.11C554.84 22.07 555.16 22.05 555.34 22.05H566.53C566.95 22.05 567.49 22.07 568.15 22.11C568.81 22.15 569.46 22.25 570.1 22.41C570.74 22.57 571.28 22.83 571.72 23.19C572.16 23.53 572.38 24 572.38 24.6V42H563.68V30.39C563.68 30.21 563.68 29.9 563.68 29.46C563.7 29.02 563.71 28.52 563.71 27.96C563.71 27.4 563.71 26.85 563.71 26.31C563.71 25.75 563.7 25.28 563.68 24.9C563.68 24.5 563.66 24.25 563.62 24.15H559.69V42ZM592.486 42H584.086V24.09H581.686V22.05H588.286C588.446 22.05 588.746 22.07 589.186 22.11C589.646 22.13 590.126 22.18 590.626 22.26C591.146 22.32 591.586 22.42 591.946 22.56C592.306 22.68 592.486 22.85 592.486 23.07V42ZM618.434 39.9V42H606.434C606.254 42 605.934 41.99 605.474 41.97C605.014 41.93 604.524 41.88 604.004 41.82C603.484 41.74 603.034 41.63 602.654 41.49C602.274 41.35 602.084 41.17 602.084 40.95V22.05H610.784V39.9H618.434ZM637.175 30.9V33H628.625V39.9H637.475V42H624.275C624.095 42 623.775 41.99 623.315 41.97C622.855 41.93 622.365 41.88 621.845 41.82C621.325 41.74 620.875 41.63 620.495 41.49C620.115 41.35 619.925 41.17 619.925 40.95V23.1C619.925 22.88 620.115 22.7 620.495 22.56C620.875 22.42 621.325 22.32 621.845 22.26C622.365 22.18 622.855 22.13 623.315 22.11C623.775 22.07 624.095 22.05 624.275 22.05H637.475V24.15H628.625V30.9H637.175ZM647.961 42H639.261V23.1C639.261 22.88 639.451 22.7 639.831 22.56C640.211 22.42 640.661 22.32 641.181 22.26C641.701 22.18 642.191 22.13 642.651 22.11C643.111 22.07 643.431 22.05 643.611 22.05H656.511C656.691 22.05 657.011 22.07 657.471 22.11C657.931 22.13 658.421 22.18 658.941 22.26C659.461 22.32 659.911 22.42 660.291 22.56C660.671 22.7 660.861 22.88 660.861 23.1V42H652.161V33.87H647.961V42ZM647.961 31.77H652.161V24.15H647.961V31.77ZM662.67 42V22.05H677.55C678.13 22.05 678.8 22.08 679.56 22.14C680.34 22.2 681.09 22.34 681.81 22.56C682.53 22.78 683.12 23.12 683.58 23.58C684.06 24.04 684.3 24.68 684.3 25.5V38.55C684.3 39.35 684.06 39.99 683.58 40.47C683.12 40.93 682.53 41.27 681.81 41.49C681.09 41.71 680.34 41.85 679.56 41.91C678.8 41.97 678.13 42 677.55 42H662.67ZM671.37 39.9H675.18C675.34 39.7 675.45 39.49 675.51 39.27C675.57 39.03 675.6 38.79 675.6 38.55V25.5C675.6 25.26 675.57 25.03 675.51 24.81C675.45 24.57 675.34 24.35 675.18 24.15H671.37V39.9ZM703.357 30.9V33H694.807V39.9H703.657V42H690.457C690.277 42 689.957 41.99 689.497 41.97C689.037 41.93 688.547 41.88 688.027 41.82C687.507 41.74 687.057 41.63 686.677 41.49C686.297 41.35 686.107 41.17 686.107 40.95V23.1C686.107 22.88 686.297 22.7 686.677 22.56C687.057 22.42 687.507 22.32 688.027 22.26C688.547 22.18 689.037 22.13 689.497 22.11C689.957 22.07 690.277 22.05 690.457 22.05H703.657V24.15H694.807V30.9H703.357ZM714.143 42H705.443V23.1C705.443 22.88 705.633 22.7 706.013 22.56C706.393 22.42 706.843 22.32 707.363 22.26C707.883 22.18 708.373 22.13 708.833 22.11C709.293 22.07 709.613 22.05 709.793 22.05H721.793C721.973 22.05 722.293 22.07 722.753 22.11C723.213 22.13 723.703 22.18 724.223 22.26C724.743 22.32 725.193 22.42 725.573 22.56C725.953 22.7 726.143 22.88 726.143 23.1V30.87C726.143 31.01 725.983 31.16 725.663 31.32C725.363 31.48 725.003 31.65 724.583 31.83C724.163 31.99 723.763 32.13 723.383 32.25C723.023 32.37 722.773 32.46 722.633 32.52L726.983 41.85L718.343 42.15C718.263 41.97 718.103 41.62 717.863 41.1C717.623 40.58 717.333 39.96 716.993 39.24C716.653 38.52 716.303 37.78 715.943 37.02C715.583 36.24 715.243 35.51 714.923 34.83C714.603 34.13 714.343 33.56 714.143 33.12V42ZM717.443 30.57V24.15H714.143V31.86C714.403 31.7 714.733 31.55 715.133 31.41C715.533 31.25 715.943 31.1 716.363 30.96C716.803 30.82 717.163 30.69 717.443 30.57ZM744.843 31.62V31.95C745.423 31.95 746.023 31.98 746.643 32.04C747.283 32.1 747.873 32.22 748.413 32.4C748.953 32.58 749.393 32.86 749.733 33.24C750.073 33.62 750.243 34.14 750.243 34.8V40.95C750.243 41.17 750.053 41.35 749.673 41.49C749.293 41.63 748.843 41.74 748.323 41.82C747.803 41.88 747.313 41.93 746.853 41.97C746.393 41.99 746.073 42 745.893 42H733.293C733.113 42 732.793 41.99 732.333 41.97C731.873 41.93 731.383 41.88 730.863 41.82C730.343 41.74 729.893 41.63 729.513 41.49C729.133 41.35 728.943 41.17 728.943 40.95V23.1C728.943 22.88 729.133 22.7 729.513 22.56C729.893 22.42 730.343 22.32 730.863 22.26C731.383 22.18 731.873 22.13 732.333 22.11C732.793 22.07 733.113 22.05 733.293 22.05H745.323C745.503 22.05 745.823 22.07 746.283 22.11C746.743 22.13 747.233 22.18 747.753 22.26C748.273 22.32 748.723 22.42 749.103 22.56C749.483 22.7 749.673 22.88 749.673 23.1V28.8C749.673 29.6 749.423 30.2 748.923 30.6C748.423 31 747.803 31.27 747.063 31.41C746.323 31.53 745.583 31.6 744.843 31.62ZM737.643 30.75H740.013C740.493 30.37 740.773 29.99 740.853 29.61C740.933 29.23 740.973 28.76 740.973 28.2V24.15H737.643V30.75ZM737.643 39.9H741.543V35.46C741.543 34.9 741.503 34.42 741.423 34.02C741.363 33.6 741.083 33.21 740.583 32.85H737.643V39.9ZM769.481 42H756.551C756.371 42 756.051 41.99 755.591 41.97C755.131 41.93 754.641 41.88 754.121 41.82C753.601 41.74 753.151 41.63 752.771 41.49C752.391 41.35 752.201 41.17 752.201 40.95V23.1C752.201 22.88 752.391 22.7 752.771 22.56C753.151 22.42 753.601 22.32 754.121 22.26C754.641 22.18 755.131 22.13 755.591 22.11C756.051 22.07 756.371 22.05 756.551 22.05H769.481C769.661 22.05 769.981 22.07 770.441 22.11C770.901 22.13 771.391 22.18 771.911 22.26C772.431 22.32 772.881 22.42 773.261 22.56C773.641 22.7 773.831 22.88 773.831 23.1V40.95C773.831 41.17 773.641 41.35 773.261 41.49C772.881 41.63 772.431 41.74 771.911 41.82C771.391 41.88 770.901 41.93 770.441 41.97C769.981 41.99 769.661 42 769.481 42ZM760.901 39.9H765.131V24.15H760.901V39.9ZM784.338 42H775.638V23.1C775.638 22.88 775.828 22.7 776.208 22.56C776.588 22.42 777.038 22.32 777.558 22.26C778.078 22.18 778.568 22.13 779.028 22.11C779.488 22.07 779.808 22.05 779.988 22.05H792.888C793.068 22.05 793.388 22.07 793.848 22.11C794.308 22.13 794.798 22.18 795.318 22.26C795.838 22.32 796.288 22.42 796.668 22.56C797.048 22.7 797.238 22.88 797.238 23.1V42H788.538V33.87H784.338V42ZM784.338 31.77H788.538V24.15H784.338V31.77ZM807.746 42H799.046V23.1C799.046 22.88 799.236 22.7 799.616 22.56C799.996 22.42 800.446 22.32 800.966 22.26C801.486 22.18 801.976 22.13 802.436 22.11C802.896 22.07 803.216 22.05 803.396 22.05H815.396C815.576 22.05 815.896 22.07 816.356 22.11C816.816 22.13 817.306 22.18 817.826 22.26C818.346 22.32 818.796 22.42 819.176 22.56C819.556 22.7 819.746 22.88 819.746 23.1V30.87C819.746 31.01 819.586 31.16 819.266 31.32C818.966 31.48 818.606 31.65 818.186 31.83C817.766 31.99 817.366 32.13 816.986 32.25C816.626 32.37 816.376 32.46 816.236 32.52L820.586 41.85L811.946 42.15C811.866 41.97 811.706 41.62 811.466 41.1C811.226 40.58 810.936 39.96 810.596 39.24C810.256 38.52 809.906 37.78 809.546 37.02C809.186 36.24 808.846 35.51 808.526 34.83C808.206 34.13 807.946 33.56 807.746 33.12V42ZM811.046 30.57V24.15H807.746V31.86C808.006 31.7 808.336 31.55 808.736 31.41C809.136 31.25 809.546 31.1 809.966 30.96C810.406 30.82 810.766 30.69 811.046 30.57ZM822.396 42V22.05H837.276C837.856 22.05 838.526 22.08 839.286 22.14C840.066 22.2 840.816 22.34 841.536 22.56C842.256 22.78 842.846 23.12 843.306 23.58C843.786 24.04 844.026 24.68 844.026 25.5V38.55C844.026 39.35 843.786 39.99 843.306 40.47C842.846 40.93 842.256 41.27 841.536 41.49C840.816 41.71 840.066 41.85 839.286 41.91C838.526 41.97 837.856 42 837.276 42H822.396ZM831.096 39.9H834.906C835.066 39.7 835.176 39.49 835.236 39.27C835.296 39.03 835.326 38.79 835.326 38.55V25.5C835.326 25.26 835.296 25.03 835.236 24.81C835.176 24.57 835.066 24.35 834.906 24.15H831.096V39.9Z" fill="url(#paint0_linear_98_2109)"/>
</g>
<rect x="0.5" y="0.5" width="1191" height="63" rx="5.5" stroke="#61439A"/>
</g>
<defs>
<filter id="filter0_i_98_2109" x="0" y="0" width="1192" height="64" filterUnits="userSpaceOnUse" color-interpolation-filters="sRGB">
<feFlood flood-opacity="0" result="BackgroundImageFix"/>
<feBlend mode="normal" in="SourceGraphic" in2="BackgroundImageFix" result="shape"/>
<feColorMatrix in="SourceAlpha" type="matrix" values="0 0 0 0 0 0 0 0 0 0 0 0 0 0 0 0 0 0 127 0" result="hardAlpha"/>
<feOffset/>
<feGaussianBlur stdDeviation="8"/>
<feComposite in2="hardAlpha" operator="arithmetic" k2="-1" k3="1"/>
<feColorMatrix type="matrix" values="0 0 0 0 0.513726 0 0 0 0 0.443137 0 0 0 0 0.913725 0 0 0 0.5 0"/>
<feBlend mode="normal" in2="shape" result="effect1_innerShadow_98_2109"/>
</filter>
<linearGradient id="paint0_linear_98_2109" x1="304.741" y1="32" x2="893.546" y2="32" gradientUnits="userSpaceOnUse">
<stop stop-color="#A1A1A1" stop-opacity="0.5"/>
<stop offset="0.533097" stop-color="#FAFAFA"/>
<stop offset="0.996993" stop-color="#A1A1A1" stop-opacity="0.5"/>
</linearGradient>
<clipPath id="clip0_98_2109">
<rect width="1192" height="64" rx="6" fill="white"/>
</clipPath>
</defs>
</svg>
