<svg width="1192" height="64" viewBox="0 0 1192 64" fill="none" xmlns="http://www.w3.org/2000/svg">
<g clip-path="url(#clip0_98_2164)">
<g filter="url(#filter0_i_98_2164)">
<path d="M0 8C0 3.58172 3.58172 0 8 0H1184C1188.42 0 1192 3.58172 1192 8V56C1192 60.4183 1188.42 64 1184 64H8.00002C3.58174 64 0 60.4183 0 56V8Z" fill="#140C22"/>
<path d="M0.5 8C0.5 3.85786 3.85786 0.5 8 0.5H1184C1188.14 0.5 1191.5 3.85787 1191.5 8V56C1191.5 60.1421 1188.14 63.5 1184 63.5H8.00002C3.85788 63.5 0.5 60.1421 0.5 56V8Z" stroke="#61439A"/>
<path d="M24 22.5L22 20.5M24 22.5C24.9312 22.1458 25.8246 21.6991 26.6667 21.1667M24 22.5V25.8333C24 25.8333 26.02 25.4667 26.6667 24.5C27.3867 23.42 26.6667 21.1667 26.6667 21.1667M22 20.5C22.3548 19.5796 22.8015 18.6974 23.3333 17.8667C24.1101 16.6247 25.1918 15.602 26.4753 14.8961C27.7589 14.1901 29.2018 13.8242 30.6667 13.8333C30.6667 15.6467 30.1467 18.8333 26.6667 21.1667M22 20.5L18.6667 20.5C18.6667 20.5 19.0333 18.48 20 17.8333C21.08 17.1133 23.3333 17.8333 23.3333 17.8333M19 23.5C18 24.34 17.6667 26.8334 17.6667 26.8334C17.6667 26.8334 20.16 26.5 21 25.5C21.4733 24.94 21.4667 24.08 20.94 23.56C20.6809 23.3127 20.3395 23.1698 19.9815 23.1587C19.6234 23.1477 19.2739 23.2692 19 23.5Z" stroke="#FAFAFA" stroke-linecap="round" stroke-linejoin="round"/>
<path d="M41.0043 26V15.8182H47.527V17.3643H42.8487V20.1286H47.0795V21.6747H42.8487V26H41.0043ZM55.6257 15.8182H57.4702V22.4702C57.4702 23.1993 57.2978 23.8407 56.9531 24.3942C56.6117 24.9477 56.1312 25.3802 55.5114 25.6918C54.8916 26 54.1674 26.1541 53.3388 26.1541C52.5069 26.1541 51.781 26 51.1612 25.6918C50.5414 25.3802 50.0608 24.9477 49.7195 24.3942C49.3781 23.8407 49.2074 23.1993 49.2074 22.4702V15.8182H51.0518V22.3161C51.0518 22.7403 51.1446 23.1181 51.3303 23.4496C51.5192 23.781 51.7843 24.0412 52.1257 24.2301C52.4671 24.4157 52.8714 24.5085 53.3388 24.5085C53.8061 24.5085 54.2105 24.4157 54.5518 24.2301C54.8965 24.0412 55.1617 23.781 55.3473 23.4496C55.5329 23.1181 55.6257 22.7403 55.6257 22.3161V15.8182ZM59.475 26V15.8182H61.3194V20.4964H61.4437L65.416 15.8182H67.6681L63.7306 20.3871L67.7029 26H65.4856L62.448 21.6349L61.3194 22.9673V26H59.475ZM75.3679 15.8182H77.2124V22.4702C77.2124 23.1993 77.04 23.8407 76.6953 24.3942C76.3539 24.9477 75.8733 25.3802 75.2536 25.6918C74.6338 26 73.9096 26.1541 73.081 26.1541C72.2491 26.1541 71.5232 26 70.9034 25.6918C70.2836 25.3802 69.803 24.9477 69.4616 24.3942C69.1203 23.8407 68.9496 23.1993 68.9496 22.4702V15.8182H70.794V22.3161C70.794 22.7403 70.8868 23.1181 71.0724 23.4496C71.2614 23.781 71.5265 24.0412 71.8679 24.2301C72.2093 24.4157 72.6136 24.5085 73.081 24.5085C73.5483 24.5085 73.9527 24.4157 74.294 24.2301C74.6387 24.0412 74.9039 23.781 75.0895 23.4496C75.2751 23.1181 75.3679 22.7403 75.3679 22.3161V15.8182ZM82.6898 26V15.8182H84.5343V24.4538H89.0186V26H82.6898ZM92.3098 26H90.3411L93.9256 15.8182H96.2026L99.7921 26H97.8233L95.1039 17.9062H95.0243L92.3098 26ZM92.3745 22.0078H97.7438V23.4893H92.3745V22.0078ZM107.551 15.8182H109.396V22.4702C109.396 23.1993 109.224 23.8407 108.879 24.3942C108.538 24.9477 108.057 25.3802 107.437 25.6918C106.817 26 106.093 26.1541 105.265 26.1541C104.433 26.1541 103.707 26 103.087 25.6918C102.467 25.3802 101.987 24.9477 101.645 24.3942C101.304 23.8407 101.133 23.1993 101.133 22.4702V15.8182H102.978V22.3161C102.978 22.7403 103.07 23.1181 103.256 23.4496C103.445 23.781 103.71 24.0412 104.051 24.2301C104.393 24.4157 104.797 24.5085 105.265 24.5085C105.732 24.5085 106.136 24.4157 106.478 24.2301C106.822 24.0412 107.087 23.781 107.273 23.4496C107.459 23.1181 107.551 22.7403 107.551 22.3161V15.8182ZM119.768 15.8182V26H118.127L113.33 19.0646H113.245V26H111.401V15.8182H113.051L117.844 22.7585H117.933V15.8182H119.768ZM130.493 19.2536H128.634C128.58 18.9486 128.483 18.6785 128.34 18.4432C128.198 18.2045 128.02 18.0024 127.808 17.8366C127.596 17.6709 127.354 17.5466 127.082 17.4638C126.814 17.3776 126.524 17.3345 126.212 17.3345C125.659 17.3345 125.168 17.4737 124.741 17.7521C124.313 18.0272 123.978 18.4316 123.737 18.9652C123.495 19.4955 123.374 20.1435 123.374 20.9091C123.374 21.688 123.495 22.3442 123.737 22.8778C123.982 23.4081 124.317 23.8092 124.741 24.081C125.168 24.3494 125.657 24.4837 126.207 24.4837C126.512 24.4837 126.797 24.4439 127.062 24.3643C127.331 24.2815 127.571 24.1605 127.783 24.0014C127.999 23.8423 128.179 23.6468 128.325 23.4148C128.474 23.1828 128.577 22.9176 128.634 22.6193L130.493 22.6293C130.423 23.1132 130.272 23.5672 130.04 23.9915C129.812 24.4157 129.512 24.7902 129.141 25.1151C128.769 25.4366 128.335 25.6884 127.838 25.8707C127.341 26.0497 126.789 26.1392 126.183 26.1392C125.288 26.1392 124.489 25.9321 123.786 25.5178C123.084 25.1035 122.53 24.5052 122.126 23.723C121.721 22.9408 121.519 22.0028 121.519 20.9091C121.519 19.812 121.723 18.8741 122.131 18.0952C122.538 17.313 123.094 16.7147 123.796 16.3004C124.499 15.8861 125.294 15.679 126.183 15.679C126.749 15.679 127.276 15.7585 127.763 15.9176C128.251 16.0767 128.685 16.3104 129.066 16.6186C129.447 16.9235 129.76 17.2981 130.006 17.7422C130.254 18.183 130.417 18.6868 130.493 19.2536ZM132.182 26V15.8182H134.026V20.1286H138.744V15.8182H140.594V26H138.744V21.6747H134.026V26H132.182ZM154.788 19.2536H152.928C152.875 18.9486 152.778 18.6785 152.635 18.4432C152.493 18.2045 152.315 18.0024 152.103 17.8366C151.891 17.6709 151.649 17.5466 151.377 17.4638C151.109 17.3776 150.819 17.3345 150.507 17.3345C149.954 17.3345 149.463 17.4737 149.036 17.7521C148.608 18.0272 148.273 18.4316 148.031 18.9652C147.789 19.4955 147.669 20.1435 147.669 20.9091C147.669 21.688 147.789 22.3442 148.031 22.8778C148.277 23.4081 148.611 23.8092 149.036 24.081C149.463 24.3494 149.952 24.4837 150.502 24.4837C150.807 24.4837 151.092 24.4439 151.357 24.3643C151.626 24.2815 151.866 24.1605 152.078 24.0014C152.294 23.8423 152.474 23.6468 152.62 23.4148C152.769 23.1828 152.872 22.9176 152.928 22.6193L154.788 22.6293C154.718 23.1132 154.567 23.5672 154.335 23.9915C154.107 24.4157 153.807 24.7902 153.436 25.1151C153.064 25.4366 152.63 25.6884 152.133 25.8707C151.636 26.0497 151.084 26.1392 150.477 26.1392C149.583 26.1392 148.784 25.9321 148.081 25.5178C147.378 25.1035 146.825 24.5052 146.421 23.723C146.016 22.9408 145.814 22.0028 145.814 20.9091C145.814 19.812 146.018 18.8741 146.426 18.0952C146.833 17.313 147.388 16.7147 148.091 16.3004C148.794 15.8861 149.589 15.679 150.477 15.679C151.044 15.679 151.571 15.7585 152.058 15.9176C152.546 16.0767 152.98 16.3104 153.361 16.6186C153.742 16.9235 154.055 17.2981 154.301 17.7422C154.549 18.183 154.712 18.6868 154.788 19.2536ZM157.661 26H155.693L159.277 15.8182H161.554L165.144 26H163.175L160.455 17.9062H160.376L157.661 26ZM157.726 22.0078H163.095V23.4893H157.726V22.0078ZM166.485 15.8182H168.742L171.765 23.196H171.884L174.907 15.8182H177.164V26H175.394V19.005H175.299L172.485 25.9702H171.163L168.349 18.9901H168.255V26H166.485V15.8182ZM179.172 26V15.8182H182.99C183.773 15.8182 184.429 15.964 184.959 16.2557C185.493 16.5473 185.895 16.9484 186.167 17.4588C186.442 17.9659 186.58 18.5426 186.58 19.1889C186.58 19.8419 186.442 20.4219 186.167 20.929C185.892 21.4361 185.486 21.8355 184.949 22.1271C184.412 22.4155 183.751 22.5597 182.966 22.5597H180.435V21.0433H182.717C183.174 21.0433 183.549 20.9638 183.841 20.8047C184.132 20.6456 184.348 20.4268 184.487 20.1484C184.629 19.87 184.701 19.5502 184.701 19.1889C184.701 18.8277 184.629 18.5095 184.487 18.2344C184.348 17.9593 184.131 17.7455 183.836 17.593C183.544 17.4373 183.168 17.3594 182.707 17.3594H181.017V26H179.172ZM188.355 26H186.386L189.971 15.8182H192.248L195.837 26H193.868L191.149 17.9062H191.069L188.355 26ZM188.419 22.0078H193.789V23.4893H188.419V22.0078ZM199.023 15.8182V26H197.178V15.8182H199.023ZM207.841 19.0696C207.758 18.8011 207.644 18.5608 207.498 18.3487C207.355 18.1333 207.183 17.9493 206.981 17.7969C206.782 17.6444 206.553 17.5301 206.295 17.4538C206.036 17.3743 205.754 17.3345 205.45 17.3345C204.903 17.3345 204.415 17.4721 203.988 17.7472C203.56 18.0223 203.224 18.4266 202.979 18.9602C202.737 19.4905 202.616 20.1368 202.616 20.8991C202.616 21.6681 202.737 22.3194 202.979 22.853C203.221 23.3866 203.557 23.7926 203.988 24.071C204.419 24.3461 204.919 24.4837 205.489 24.4837C206.006 24.4837 206.454 24.3842 206.832 24.1854C207.213 23.9865 207.506 23.7048 207.712 23.3402C207.917 22.9723 208.02 22.5414 208.02 22.0476L208.438 22.1122H205.673V20.6705H209.805V21.8935C209.805 22.7652 209.619 23.5192 209.248 24.1555C208.877 24.7919 208.366 25.2824 207.717 25.6271C207.067 25.9685 206.321 26.1392 205.479 26.1392C204.541 26.1392 203.718 25.9287 203.009 25.5078C202.303 25.0836 201.751 24.482 201.353 23.7031C200.959 22.9209 200.761 21.9929 200.761 20.919C200.761 20.0971 200.877 19.3629 201.109 18.7166C201.345 18.0703 201.673 17.5218 202.094 17.071C202.515 16.617 203.009 16.2723 203.575 16.0369C204.142 15.7983 204.759 15.679 205.425 15.679C205.988 15.679 206.513 15.7618 207.001 15.9276C207.488 16.09 207.92 16.322 208.298 16.6236C208.679 16.9252 208.993 17.2831 209.238 17.6974C209.483 18.1117 209.644 18.5691 209.72 19.0696H207.841ZM219.955 15.8182V26H218.315L213.517 19.0646H213.433V26H211.588V15.8182H213.239L218.031 22.7585H218.121V15.8182H219.955Z" fill="url(#paint0_linear_98_2164)"/>
<path d="M231 12V29" stroke="#61439A"/>
<path d="M242.004 26V15.8182H248.626V17.3643H243.849V20.1286H248.283V21.6747H243.849V24.4538H248.666V26H242.004ZM251.816 26H249.847L253.431 15.8182H255.708L259.298 26H257.329L254.61 17.9062H254.53L251.816 26ZM251.88 22.0078H257.25V23.4893H251.88V22.0078ZM260.639 26V15.8182H264.457C265.239 15.8182 265.896 15.9541 266.426 16.2259C266.96 16.4976 267.362 16.8788 267.634 17.3693C267.909 17.8565 268.047 18.425 268.047 19.0746C268.047 19.7275 267.907 20.2943 267.629 20.7749C267.354 21.2521 266.948 21.6217 266.411 21.8835C265.874 22.142 265.215 22.2713 264.432 22.2713H261.713V20.7401H264.184C264.641 20.7401 265.016 20.6771 265.307 20.5511C265.599 20.4219 265.814 20.2346 265.954 19.9893C266.096 19.7408 266.167 19.4358 266.167 19.0746C266.167 18.7133 266.096 18.4051 265.954 18.1499C265.811 17.8913 265.594 17.6958 265.302 17.5632C265.011 17.4273 264.635 17.3594 264.174 17.3594H262.483V26H260.639ZM265.899 21.3864L268.42 26H266.361L263.885 21.3864H265.899ZM278.112 15.8182V26H276.471L271.673 19.0646H271.589V26H269.744V15.8182H271.395L276.188 22.7585H276.277V15.8182H278.112ZM285.135 15.8182L287.377 19.5469H287.457L289.709 15.8182H291.812L288.675 20.9091L291.862 26H289.724L287.457 22.2962H287.377L285.11 26H282.983L286.199 20.9091L283.022 15.8182H285.135ZM293.161 26V24.6676L296.695 21.2024C297.034 20.861 297.315 20.5578 297.541 20.2926C297.766 20.0275 297.935 19.7706 298.048 19.522C298.16 19.2734 298.217 19.0083 298.217 18.7266C298.217 18.4051 298.144 18.13 297.998 17.9013C297.852 17.6693 297.652 17.4903 297.396 17.3643C297.141 17.2384 296.851 17.1754 296.526 17.1754C296.192 17.1754 295.898 17.245 295.646 17.3842C295.395 17.5201 295.199 17.714 295.06 17.9659C294.924 18.2178 294.856 18.5178 294.856 18.8658H293.101C293.101 18.2195 293.249 17.6577 293.544 17.1804C293.838 16.7031 294.244 16.3336 294.762 16.0717C295.282 15.8099 295.878 15.679 296.551 15.679C297.234 15.679 297.834 15.8066 298.351 16.0618C298.868 16.317 299.269 16.6667 299.554 17.1108C299.843 17.5549 299.987 18.062 299.987 18.6321C299.987 19.0133 299.914 19.3878 299.768 19.7557C299.622 20.1236 299.365 20.5312 298.997 20.9787C298.633 21.4261 298.121 21.968 297.461 22.6044L295.706 24.3892V24.4588H300.141V26H293.161ZM305.428 26V15.8182H309.246C310.028 15.8182 310.685 15.964 311.215 16.2557C311.749 16.5473 312.151 16.9484 312.423 17.4588C312.698 17.9659 312.836 18.5426 312.836 19.1889C312.836 19.8419 312.698 20.4219 312.423 20.929C312.148 21.4361 311.742 21.8355 311.205 22.1271C310.668 22.4155 310.007 22.5597 309.221 22.5597H306.691V21.0433H308.973C309.43 21.0433 309.805 20.9638 310.096 20.8047C310.388 20.6456 310.604 20.4268 310.743 20.1484C310.885 19.87 310.956 19.5502 310.956 19.1889C310.956 18.8277 310.885 18.5095 310.743 18.2344C310.604 17.9593 310.386 17.7455 310.091 17.593C309.8 17.4373 309.424 17.3594 308.963 17.3594H307.273V26H305.428ZM323.536 20.9091C323.536 22.0062 323.33 22.9458 322.919 23.728C322.512 24.5069 321.955 25.1035 321.249 25.5178C320.546 25.9321 319.749 26.1392 318.858 26.1392C317.966 26.1392 317.167 25.9321 316.461 25.5178C315.759 25.1001 315.202 24.5019 314.791 23.723C314.383 22.9408 314.179 22.0028 314.179 20.9091C314.179 19.812 314.383 18.8741 314.791 18.0952C315.202 17.313 315.759 16.7147 316.461 16.3004C317.167 15.8861 317.966 15.679 318.858 15.679C319.749 15.679 320.546 15.8861 321.249 16.3004C321.955 16.7147 322.512 17.313 322.919 18.0952C323.33 18.8741 323.536 19.812 323.536 20.9091ZM321.681 20.9091C321.681 20.1368 321.56 19.4856 321.319 18.9553C321.08 18.4216 320.748 18.0189 320.324 17.7472C319.9 17.4721 319.411 17.3345 318.858 17.3345C318.304 17.3345 317.815 17.4721 317.391 17.7472C316.967 18.0189 316.634 18.4216 316.392 18.9553C316.153 19.4856 316.034 20.1368 316.034 20.9091C316.034 21.6813 316.153 22.3343 316.392 22.8679C316.634 23.3982 316.967 23.8009 317.391 24.076C317.815 24.3478 318.304 24.4837 318.858 24.4837C319.411 24.4837 319.9 24.3478 320.324 24.076C320.748 23.8009 321.08 23.3982 321.319 22.8679C321.56 22.3343 321.681 21.6813 321.681 20.9091ZM327.124 15.8182V26H325.28V15.8182H327.124ZM337.489 15.8182V26H335.848L331.05 19.0646H330.966V26H329.121V15.8182H330.772L335.565 22.7585H335.654V15.8182H337.489ZM339.051 17.3643V15.8182H347.175V17.3643H344.028V26H342.198V17.3643H339.051ZM354.274 18.6172C354.228 18.183 354.032 17.8449 353.687 17.603C353.346 17.361 352.902 17.2401 352.355 17.2401C351.97 17.2401 351.641 17.2981 351.366 17.4141C351.09 17.5301 350.88 17.6875 350.734 17.8864C350.588 18.0852 350.514 18.3123 350.51 18.5675C350.51 18.7796 350.559 18.9635 350.655 19.1193C350.754 19.2751 350.888 19.4077 351.057 19.517C351.226 19.6231 351.414 19.7126 351.619 19.7855C351.825 19.8584 352.032 19.9197 352.241 19.9695L353.195 20.2081C353.58 20.2976 353.949 20.4186 354.304 20.571C354.662 20.7235 354.982 20.9157 355.263 21.1477C355.548 21.3797 355.774 21.6598 355.939 21.9879C356.105 22.3161 356.188 22.7005 356.188 23.1413C356.188 23.7379 356.036 24.2633 355.731 24.7173C355.426 25.1681 354.985 25.5211 354.408 25.7763C353.835 26.0282 353.14 26.1541 352.325 26.1541C351.533 26.1541 350.845 26.0315 350.262 25.7862C349.682 25.541 349.228 25.183 348.9 24.7124C348.575 24.2417 348.399 23.6683 348.373 22.9922H350.187C350.214 23.3468 350.323 23.6418 350.515 23.8771C350.708 24.1125 350.958 24.2881 351.266 24.4041C351.578 24.5201 351.926 24.5781 352.31 24.5781C352.711 24.5781 353.063 24.5185 353.364 24.3991C353.669 24.2765 353.908 24.1075 354.08 23.892C354.252 23.6733 354.34 23.4181 354.344 23.1264C354.34 22.8613 354.262 22.6425 354.11 22.4702C353.957 22.2945 353.744 22.1487 353.469 22.0327C353.197 21.9134 352.879 21.8073 352.514 21.7145L351.356 21.4162C350.517 21.2008 349.854 20.8743 349.367 20.4368C348.883 19.996 348.641 19.411 348.641 18.6818C348.641 18.0819 348.804 17.5566 349.128 17.1058C349.456 16.6551 349.902 16.3054 350.466 16.0568C351.029 15.8049 351.667 15.679 352.38 15.679C353.102 15.679 353.735 15.8049 354.279 16.0568C354.826 16.3054 355.255 16.6518 355.567 17.0959C355.878 17.5367 356.039 18.0438 356.049 18.6172H354.274Z" fill="#F541D7"/>
<path d="M44.3352 47H41.3523V36.8182H44.5142C45.4853 36.8182 46.3156 37.0204 47.005 37.4247C47.6977 37.8291 48.228 38.4091 48.5959 39.1648C48.9638 39.9205 49.1477 40.8269 49.1477 41.8842C49.1477 42.9515 48.9588 43.8679 48.581 44.6335C48.2064 45.3958 47.6596 45.9808 46.9403 46.3885C46.2244 46.7962 45.3561 47 44.3352 47ZM42.282 46.1648H44.2805C45.1555 46.1648 45.888 45.9924 46.478 45.6477C47.0679 45.303 47.5104 44.8108 47.8054 44.1712C48.1004 43.5315 48.2479 42.7692 48.2479 41.8842C48.2446 41.0059 48.0987 40.2502 47.8104 39.6172C47.5253 38.9841 47.1011 38.4986 46.5376 38.1605C45.9775 37.8224 45.2848 37.6534 44.4595 37.6534H42.282V46.1648ZM54.3045 47.1591C53.5919 47.1591 52.9754 46.9934 52.4551 46.6619C51.9347 46.3272 51.532 45.8648 51.247 45.2749C50.9653 44.6816 50.8244 43.9988 50.8244 43.2266C50.8244 42.4576 50.9653 41.7749 51.247 41.1783C51.532 40.5784 51.9248 40.1094 52.4252 39.7713C52.929 39.4299 53.5107 39.2592 54.1703 39.2592C54.5846 39.2592 54.984 39.3355 55.3684 39.4879C55.7529 39.6371 56.0976 39.8674 56.4025 40.179C56.7108 40.4872 56.9544 40.8767 57.1333 41.3473C57.3123 41.8146 57.4018 42.3681 57.4018 43.0078V43.4453H51.4359V42.6648H56.497C56.497 42.1742 56.3976 41.7334 56.1987 41.3423C56.0031 40.9479 55.7297 40.6364 55.3784 40.4077C55.0304 40.179 54.6277 40.0646 54.1703 40.0646C53.6864 40.0646 53.2605 40.1939 52.8926 40.4524C52.5247 40.7109 52.2363 41.0523 52.0275 41.4766C51.822 41.9008 51.7176 42.3648 51.7143 42.8686V43.3359C51.7143 43.9425 51.8187 44.4728 52.0275 44.9268C52.2396 45.3776 52.5396 45.7273 52.9274 45.9759C53.3152 46.2244 53.7742 46.3487 54.3045 46.3487C54.6658 46.3487 54.9823 46.2924 55.2541 46.1797C55.5292 46.067 55.7595 45.9162 55.9451 45.7273C56.1341 45.535 56.2766 45.3246 56.3727 45.0959L57.2129 45.3693C57.0969 45.6908 56.9063 45.9875 56.6412 46.2592C56.3793 46.531 56.0512 46.7498 55.6568 46.9155C55.2657 47.0779 54.8149 47.1591 54.3045 47.1591ZM59.3519 49.8636V39.3636H60.212V40.8203H60.3164C60.4225 40.5916 60.5683 40.358 60.7539 40.1193C60.9395 39.8774 61.1848 39.6735 61.4897 39.5078C61.7979 39.3421 62.1857 39.2592 62.6531 39.2592C63.2828 39.2592 63.833 39.425 64.3036 39.7564C64.7776 40.0845 65.1455 40.5452 65.4073 41.1385C65.6725 41.7285 65.805 42.4162 65.805 43.2017C65.805 43.9905 65.6725 44.6816 65.4073 45.2749C65.1455 45.8681 64.7776 46.3305 64.3036 46.6619C63.833 46.9934 63.2861 47.1591 62.663 47.1591C62.2023 47.1591 61.8162 47.0762 61.5046 46.9105C61.1964 46.7448 60.9461 46.541 60.7539 46.299C60.565 46.0537 60.4192 45.8151 60.3164 45.5831H60.2369V49.8636H59.3519ZM60.2269 43.1868C60.2269 43.8033 60.3181 44.3501 60.5004 44.8274C60.686 45.3014 60.9511 45.6742 61.2958 45.946C61.6438 46.2145 62.0647 46.3487 62.5586 46.3487C63.0657 46.3487 63.4933 46.2095 63.8413 45.9311C64.1926 45.6494 64.4594 45.2699 64.6417 44.7926C64.8273 44.3153 64.9201 43.7801 64.9201 43.1868C64.9201 42.6001 64.829 42.0715 64.6467 41.6009C64.4677 41.1302 64.2025 40.7573 63.8512 40.4822C63.4999 40.2038 63.069 40.0646 62.5586 40.0646C62.0614 40.0646 61.6388 40.1989 61.2908 40.4673C60.9428 40.7325 60.6777 41.1004 60.4954 41.571C60.3164 42.0384 60.2269 42.5769 60.2269 43.1868ZM70.7145 47.1591C70.0549 47.1591 69.4716 46.9917 68.9645 46.657C68.4607 46.3222 68.0663 45.8598 67.7812 45.2699C67.4962 44.6766 67.3537 43.9922 67.3537 43.2166C67.3537 42.4344 67.4962 41.7467 67.7812 41.1534C68.0663 40.5568 68.4607 40.0928 68.9645 39.7614C69.4716 39.4266 70.0549 39.2592 70.7145 39.2592C71.3741 39.2592 71.9557 39.4266 72.4595 39.7614C72.9633 40.0961 73.3577 40.5601 73.6428 41.1534C73.9311 41.7467 74.0753 42.4344 74.0753 43.2166C74.0753 43.9922 73.9328 44.6766 73.6477 45.2699C73.3627 45.8598 72.9666 46.3222 72.4595 46.657C71.9557 46.9917 71.3741 47.1591 70.7145 47.1591ZM70.7145 46.3487C71.2448 46.3487 71.6939 46.2062 72.0618 45.9212C72.4297 45.6361 72.7081 45.2566 72.897 44.7827C73.0893 44.3087 73.1854 43.7867 73.1854 43.2166C73.1854 42.6465 73.0893 42.1229 72.897 41.6456C72.7081 41.1683 72.4297 40.7855 72.0618 40.4972C71.6939 40.2088 71.2448 40.0646 70.7145 40.0646C70.1875 40.0646 69.7384 40.2088 69.3672 40.4972C68.9993 40.7855 68.7192 41.1683 68.527 41.6456C68.3381 42.1229 68.2436 42.6465 68.2436 43.2166C68.2436 43.7867 68.3381 44.3087 68.527 44.7827C68.7192 45.2566 68.9993 45.6361 69.3672 45.9212C69.7351 46.2062 70.1842 46.3487 70.7145 46.3487ZM81.1486 41.0391L80.3382 41.2678C80.2587 41.0391 80.146 40.8319 80.0002 40.6463C79.8543 40.4607 79.6638 40.3132 79.4284 40.2038C79.1964 40.0945 78.9081 40.0398 78.5634 40.0398C78.0463 40.0398 77.6221 40.1624 77.2907 40.4077C76.9592 40.6529 76.7935 40.9695 76.7935 41.3572C76.7935 41.6854 76.9062 41.9522 77.1316 42.1577C77.3603 42.3598 77.7116 42.5206 78.1855 42.6399L79.339 42.9233C79.9786 43.0791 80.4576 43.326 80.7757 43.6641C81.0972 44.0021 81.258 44.4264 81.258 44.9368C81.258 45.3677 81.1387 45.7505 80.9 46.0852C80.6614 46.42 80.3283 46.6835 79.9007 46.8757C79.4765 47.0646 78.9843 47.1591 78.4242 47.1591C77.6784 47.1591 77.0636 46.9917 76.5797 46.657C76.0958 46.3189 75.7859 45.8317 75.65 45.1953L76.5002 44.9865C76.6096 45.4406 76.8233 45.7836 77.1415 46.0156C77.463 46.2476 77.8856 46.3636 78.4093 46.3636C78.9959 46.3636 79.4649 46.2327 79.8162 45.9709C80.1676 45.7057 80.3432 45.3743 80.3432 44.9766C80.3432 44.6683 80.2405 44.4098 80.035 44.201C79.8295 43.9889 79.5179 43.8331 79.1003 43.7337L77.8525 43.4354C77.1896 43.2763 76.699 43.0244 76.3809 42.6797C76.0627 42.335 75.9036 41.9074 75.9036 41.397C75.9036 40.9761 76.0179 40.6065 76.2466 40.2884C76.4753 39.9669 76.7902 39.715 77.1912 39.5327C77.5923 39.3504 78.0497 39.2592 78.5634 39.2592C79.2627 39.2592 79.8212 39.4183 80.2388 39.7365C80.6597 40.0514 80.963 40.4856 81.1486 41.0391ZM83.2056 47V39.3636H84.0955V47H83.2056ZM83.658 38.0511C83.4757 38.0511 83.32 37.9898 83.1907 37.8672C83.0614 37.7412 82.9968 37.5904 82.9968 37.4148C82.9968 37.2391 83.0614 37.09 83.1907 36.9673C83.32 36.8414 83.4757 36.7784 83.658 36.7784C83.8403 36.7784 83.9961 36.8414 84.1254 36.9673C84.2546 37.09 84.3192 37.2391 84.3192 37.4148C84.3192 37.5904 84.2546 37.7412 84.1254 37.8672C83.9961 37.9898 83.8403 38.0511 83.658 38.0511ZM89.4437 39.3636V40.1342H85.7995V39.3636H89.4437ZM86.938 37.5341H87.8279V45.0064C87.8279 45.3246 87.8826 45.5748 87.992 45.7571C88.1014 45.9361 88.2439 46.0637 88.4196 46.1399C88.5952 46.2128 88.7825 46.2493 88.9814 46.2493C89.0974 46.2493 89.1968 46.2427 89.2797 46.2294C89.3625 46.2128 89.4354 46.1963 89.4984 46.1797L89.6873 46.9801C89.6011 47.0133 89.4951 47.0431 89.3691 47.0696C89.2432 47.0994 89.0874 47.1143 88.9018 47.1143C88.577 47.1143 88.2638 47.0431 87.9622 46.9006C87.6639 46.758 87.4186 46.5459 87.2264 46.2642C87.0342 45.9825 86.938 45.6328 86.938 45.2152V37.5341ZM96.2759 42.2273V47H95.391V39.3636H96.2511V40.5618H96.3306C96.5096 40.1707 96.788 39.8575 97.1658 39.6222C97.547 39.3835 98.0176 39.2642 98.5778 39.2642C99.0915 39.2642 99.5423 39.3719 99.93 39.5874C100.321 39.7995 100.624 40.1127 100.84 40.527C101.059 40.9413 101.168 41.45 101.168 42.0533V47H100.283V42.108C100.283 41.4815 100.107 40.986 99.756 40.6214C99.408 40.2569 98.9407 40.0746 98.354 40.0746C97.953 40.0746 97.5967 40.1607 97.2852 40.3331C96.9736 40.5054 96.7267 40.754 96.5444 41.0788C96.3654 41.4003 96.2759 41.7831 96.2759 42.2273ZM106.466 47.1591C105.807 47.1591 105.224 46.9917 104.716 46.657C104.213 46.3222 103.818 45.8598 103.533 45.2699C103.248 44.6766 103.106 43.9922 103.106 43.2166C103.106 42.4344 103.248 41.7467 103.533 41.1534C103.818 40.5568 104.213 40.0928 104.716 39.7614C105.224 39.4266 105.807 39.2592 106.466 39.2592C107.126 39.2592 107.708 39.4266 108.211 39.7614C108.715 40.0961 109.11 40.5601 109.395 41.1534C109.683 41.7467 109.827 42.4344 109.827 43.2166C109.827 43.9922 109.685 44.6766 109.4 45.2699C109.115 45.8598 108.719 46.3222 108.211 46.657C107.708 46.9917 107.126 47.1591 106.466 47.1591ZM106.466 46.3487C106.997 46.3487 107.446 46.2062 107.814 45.9212C108.182 45.6361 108.46 45.2566 108.649 44.7827C108.841 44.3087 108.937 43.7867 108.937 43.2166C108.937 42.6465 108.841 42.1229 108.649 41.6456C108.46 41.1683 108.182 40.7855 107.814 40.4972C107.446 40.2088 106.997 40.0646 106.466 40.0646C105.939 40.0646 105.49 40.2088 105.119 40.4972C104.751 40.7855 104.471 41.1683 104.279 41.6456C104.09 42.1229 103.996 42.6465 103.996 43.2166C103.996 43.7867 104.09 44.3087 104.279 44.7827C104.471 45.2566 104.751 45.6361 105.119 45.9212C105.487 46.2062 105.936 46.3487 106.466 46.3487ZM113.205 47L110.899 39.3636H111.833L113.643 45.6626H113.708L115.512 39.3636H116.452L118.242 45.6477H118.311L120.121 39.3636H121.056L118.749 47H117.834L116.024 40.7408H115.93L114.12 47H113.205ZM123.208 45.608L123.119 46.1399C123.062 46.4979 122.983 46.8923 122.88 47.3232C122.777 47.754 122.671 48.1634 122.562 48.5511C122.453 48.9389 122.358 49.2505 122.279 49.4858H121.597C121.641 49.2604 121.695 48.9737 121.762 48.6257C121.831 48.2777 121.902 47.8916 121.975 47.4673C122.048 47.0464 122.115 46.6122 122.174 46.1648L122.244 45.608H123.208ZM132.576 47.1591C131.863 47.1591 131.247 46.9934 130.727 46.6619C130.206 46.3272 129.804 45.8648 129.518 45.2749C129.237 44.6816 129.096 43.9988 129.096 43.2266C129.096 42.4576 129.237 41.7749 129.518 41.1783C129.804 40.5784 130.196 40.1094 130.697 39.7713C131.201 39.4299 131.782 39.2592 132.442 39.2592C132.856 39.2592 133.255 39.3355 133.64 39.4879C134.024 39.6371 134.369 39.8674 134.674 40.179C134.982 40.4872 135.226 40.8767 135.405 41.3473C135.584 41.8146 135.673 42.3681 135.673 43.0078V43.4453H129.707V42.6648H134.768C134.768 42.1742 134.669 41.7334 134.47 41.3423C134.275 40.9479 134.001 40.6364 133.65 40.4077C133.302 40.179 132.899 40.0646 132.442 40.0646C131.958 40.0646 131.532 40.1939 131.164 40.4524C130.796 40.7109 130.508 41.0523 130.299 41.4766C130.094 41.9008 129.989 42.3648 129.986 42.8686V43.3359C129.986 43.9425 130.09 44.4728 130.299 44.9268C130.511 45.3776 130.811 45.7273 131.199 45.9759C131.587 46.2244 132.046 46.3487 132.576 46.3487C132.937 46.3487 133.254 46.2924 133.526 46.1797C133.801 46.067 134.031 45.9162 134.217 45.7273C134.406 45.535 134.548 45.3246 134.644 45.0959L135.484 45.3693C135.368 45.6908 135.178 45.9875 134.913 46.2592C134.651 46.531 134.323 46.7498 133.928 46.9155C133.537 47.0779 133.086 47.1591 132.576 47.1591ZM139.756 47.174C139.296 47.174 138.875 47.0845 138.493 46.9055C138.112 46.7232 137.809 46.4614 137.584 46.12C137.358 45.7753 137.246 45.3577 137.246 44.8672C137.246 44.4893 137.317 44.1712 137.459 43.9126C137.602 43.6541 137.804 43.442 138.066 43.2763C138.328 43.1106 138.638 42.9796 138.996 42.8835C139.354 42.7874 139.748 42.7128 140.179 42.6598C140.606 42.6068 140.968 42.5604 141.263 42.5206C141.561 42.4808 141.788 42.4179 141.944 42.3317C142.099 42.2455 142.177 42.1063 142.177 41.9141V41.7351C142.177 41.2147 142.022 40.8054 141.71 40.5071C141.402 40.2055 140.958 40.0547 140.378 40.0547C139.827 40.0547 139.378 40.1757 139.03 40.4176C138.686 40.6596 138.444 40.9446 138.305 41.2727L137.464 40.9695C137.637 40.5518 137.875 40.2187 138.18 39.9702C138.485 39.7183 138.827 39.5376 139.204 39.4283C139.582 39.3156 139.965 39.2592 140.353 39.2592C140.644 39.2592 140.948 39.2973 141.263 39.3736C141.581 39.4498 141.876 39.5824 142.148 39.7713C142.419 39.9569 142.64 40.2171 142.809 40.5518C142.978 40.8833 143.062 41.3042 143.062 41.8146V47H142.177V45.7919H142.123C142.017 46.0173 141.859 46.236 141.65 46.4482C141.442 46.6603 141.18 46.8343 140.865 46.9702C140.55 47.1061 140.18 47.174 139.756 47.174ZM139.876 46.3636C140.346 46.3636 140.754 46.2592 141.099 46.0504C141.443 45.8416 141.708 45.5649 141.894 45.2202C142.083 44.8722 142.177 44.4893 142.177 44.0717V42.968C142.111 43.031 142 43.0874 141.844 43.1371C141.692 43.1868 141.515 43.2315 141.312 43.2713C141.113 43.3078 140.915 43.3393 140.716 43.3658C140.517 43.3923 140.338 43.4155 140.179 43.4354C139.748 43.4884 139.38 43.5713 139.075 43.6839C138.77 43.7966 138.537 43.9524 138.374 44.1513C138.212 44.3468 138.131 44.5987 138.131 44.907C138.131 45.371 138.296 45.7306 138.628 45.9858C138.959 46.2377 139.375 46.3636 139.876 46.3636ZM145.416 47V39.3636H146.276V40.5369H146.341C146.494 40.1525 146.759 39.8426 147.137 39.6072C147.518 39.3686 147.949 39.2493 148.429 39.2493C148.502 39.2493 148.583 39.2509 148.673 39.2543C148.762 39.2576 148.837 39.2609 148.896 39.2642V40.1641C148.857 40.1574 148.787 40.1475 148.688 40.1342C148.588 40.121 148.481 40.1143 148.365 40.1143C147.967 40.1143 147.612 40.1989 147.301 40.3679C146.992 40.5336 146.749 40.764 146.57 41.0589C146.391 41.3539 146.301 41.6903 146.301 42.0682V47H145.416ZM151.292 42.2273V47H150.407V39.3636H151.267V40.5618H151.346C151.525 40.1707 151.804 39.8575 152.181 39.6222C152.563 39.3835 153.033 39.2642 153.593 39.2642C154.107 39.2642 154.558 39.3719 154.946 39.5874C155.337 39.7995 155.64 40.1127 155.855 40.527C156.074 40.9413 156.184 41.45 156.184 42.0533V47H155.299V42.108C155.299 41.4815 155.123 40.986 154.772 40.6214C154.424 40.2569 153.956 40.0746 153.37 40.0746C152.969 40.0746 152.612 40.1607 152.301 40.3331C151.989 40.5054 151.742 40.754 151.56 41.0788C151.381 41.4003 151.292 41.7831 151.292 42.2273ZM162.452 47V39.3636H163.312V40.5369H163.391C163.544 40.1425 163.797 39.8326 164.152 39.6072C164.51 39.3786 164.939 39.2642 165.439 39.2642C165.966 39.2642 166.399 39.3885 166.737 39.6371C167.078 39.8823 167.334 40.2204 167.503 40.6513H167.567C167.74 40.227 168.02 39.8906 168.407 39.642C168.799 39.3902 169.273 39.2642 169.829 39.2642C170.539 39.2642 171.099 39.4879 171.51 39.9354C171.921 40.3795 172.126 41.0291 172.126 41.8842V47H171.241V41.8842C171.241 41.281 171.087 40.8286 170.779 40.527C170.471 40.2254 170.065 40.0746 169.561 40.0746C168.978 40.0746 168.528 40.2536 168.214 40.6115C167.899 40.9695 167.741 41.4235 167.741 41.9737V47H166.836V41.8047C166.836 41.2876 166.692 40.87 166.404 40.5518C166.116 40.2337 165.71 40.0746 165.186 40.0746C164.835 40.0746 164.518 40.1607 164.236 40.3331C163.958 40.5054 163.738 40.7457 163.575 41.054C163.416 41.3589 163.336 41.7102 163.336 42.108V47H162.452ZM177.437 47.1591C176.778 47.1591 176.194 46.9917 175.687 46.657C175.183 46.3222 174.789 45.8598 174.504 45.2699C174.219 44.6766 174.076 43.9922 174.076 43.2166C174.076 42.4344 174.219 41.7467 174.504 41.1534C174.789 40.5568 175.183 40.0928 175.687 39.7614C176.194 39.4266 176.778 39.2592 177.437 39.2592C178.097 39.2592 178.678 39.4266 179.182 39.7614C179.686 40.0961 180.08 40.5601 180.365 41.1534C180.654 41.7467 180.798 42.4344 180.798 43.2166C180.798 43.9922 180.655 44.6766 180.37 45.2699C180.085 45.8598 179.689 46.3222 179.182 46.657C178.678 46.9917 178.097 47.1591 177.437 47.1591ZM177.437 46.3487C177.967 46.3487 178.417 46.2062 178.784 45.9212C179.152 45.6361 179.431 45.2566 179.62 44.7827C179.812 44.3087 179.908 43.7867 179.908 43.2166C179.908 42.6465 179.812 42.1229 179.62 41.6456C179.431 41.1683 179.152 40.7855 178.784 40.4972C178.417 40.2088 177.967 40.0646 177.437 40.0646C176.91 40.0646 176.461 40.2088 176.09 40.4972C175.722 40.7855 175.442 41.1683 175.25 41.6456C175.061 42.1229 174.966 42.6465 174.966 43.2166C174.966 43.7867 175.061 44.3087 175.25 44.7827C175.442 45.2566 175.722 45.6361 176.09 45.9212C176.458 46.2062 176.907 46.3487 177.437 46.3487ZM182.741 47V39.3636H183.601V40.5369H183.665C183.818 40.1525 184.083 39.8426 184.461 39.6072C184.842 39.3686 185.273 39.2493 185.753 39.2493C185.826 39.2493 185.907 39.2509 185.997 39.2543C186.086 39.2576 186.161 39.2609 186.221 39.2642V40.1641C186.181 40.1574 186.111 40.1475 186.012 40.1342C185.912 40.121 185.805 40.1143 185.689 40.1143C185.291 40.1143 184.936 40.1989 184.625 40.3679C184.317 40.5336 184.073 40.764 183.894 41.0589C183.715 41.3539 183.626 41.6903 183.626 42.0682V47H182.741ZM190.586 47.1591C189.873 47.1591 189.257 46.9934 188.736 46.6619C188.216 46.3272 187.813 45.8648 187.528 45.2749C187.247 44.6816 187.106 43.9988 187.106 43.2266C187.106 42.4576 187.247 41.7749 187.528 41.1783C187.813 40.5784 188.206 40.1094 188.706 39.7713C189.21 39.4299 189.792 39.2592 190.452 39.2592C190.866 39.2592 191.265 39.3355 191.65 39.4879C192.034 39.6371 192.379 39.8674 192.684 40.179C192.992 40.4872 193.236 40.8767 193.415 41.3473C193.594 41.8146 193.683 42.3681 193.683 43.0078V43.4453H187.717V42.6648H192.778C192.778 42.1742 192.679 41.7334 192.48 41.3423C192.284 40.9479 192.011 40.6364 191.66 40.4077C191.312 40.179 190.909 40.0646 190.452 40.0646C189.968 40.0646 189.542 40.1939 189.174 40.4524C188.806 40.7109 188.518 41.0523 188.309 41.4766C188.103 41.9008 187.999 42.3648 187.996 42.8686V43.3359C187.996 43.9425 188.1 44.4728 188.309 44.9268C188.521 45.3776 188.821 45.7273 189.209 45.9759C189.596 46.2244 190.055 46.3487 190.586 46.3487C190.947 46.3487 191.264 46.2924 191.535 46.1797C191.81 46.067 192.041 45.9162 192.226 45.7273C192.415 45.535 192.558 45.3246 192.654 45.0959L193.494 45.3693C193.378 45.6908 193.188 45.9875 192.922 46.2592C192.661 46.531 192.332 46.7498 191.938 46.9155C191.547 47.0779 191.096 47.1591 190.586 47.1591ZM199.571 49.8636V39.3636H200.431V40.8203H200.535C200.641 40.5916 200.787 40.358 200.973 40.1193C201.158 39.8774 201.404 39.6735 201.708 39.5078C202.017 39.3421 202.404 39.2592 202.872 39.2592C203.502 39.2592 204.052 39.425 204.522 39.7564C204.996 40.0845 205.364 40.5452 205.626 41.1385C205.891 41.7285 206.024 42.4162 206.024 43.2017C206.024 43.9905 205.891 44.6816 205.626 45.2749C205.364 45.8681 204.996 46.3305 204.522 46.6619C204.052 46.9934 203.505 47.1591 202.882 47.1591C202.421 47.1591 202.035 47.0762 201.723 46.9105C201.415 46.7448 201.165 46.541 200.973 46.299C200.784 46.0537 200.638 45.8151 200.535 45.5831H200.456V49.8636H199.571ZM200.446 43.1868C200.446 43.8033 200.537 44.3501 200.719 44.8274C200.905 45.3014 201.17 45.6742 201.515 45.946C201.863 46.2145 202.283 46.3487 202.777 46.3487C203.284 46.3487 203.712 46.2095 204.06 45.9311C204.411 45.6494 204.678 45.2699 204.86 44.7926C205.046 44.3153 205.139 43.7801 205.139 43.1868C205.139 42.6001 205.048 42.0715 204.865 41.6009C204.686 41.1302 204.421 40.7573 204.07 40.4822C203.719 40.2038 203.288 40.0646 202.777 40.0646C202.28 40.0646 201.858 40.1989 201.51 40.4673C201.162 40.7325 200.896 41.1004 200.714 41.571C200.535 42.0384 200.446 42.5769 200.446 43.1868ZM210.933 47.1591C210.274 47.1591 209.69 46.9917 209.183 46.657C208.679 46.3222 208.285 45.8598 208 45.2699C207.715 44.6766 207.572 43.9922 207.572 43.2166C207.572 42.4344 207.715 41.7467 208 41.1534C208.285 40.5568 208.679 40.0928 209.183 39.7614C209.69 39.4266 210.274 39.2592 210.933 39.2592C211.593 39.2592 212.174 39.4266 212.678 39.7614C213.182 40.0961 213.576 40.5601 213.862 41.1534C214.15 41.7467 214.294 42.4344 214.294 43.2166C214.294 43.9922 214.152 44.6766 213.866 45.2699C213.581 45.8598 213.185 46.3222 212.678 46.657C212.174 46.9917 211.593 47.1591 210.933 47.1591ZM210.933 46.3487C211.464 46.3487 211.913 46.2062 212.281 45.9212C212.648 45.6361 212.927 45.2566 213.116 44.7827C213.308 44.3087 213.404 43.7867 213.404 43.2166C213.404 42.6465 213.308 42.1229 213.116 41.6456C212.927 41.1683 212.648 40.7855 212.281 40.4972C211.913 40.2088 211.464 40.0646 210.933 40.0646C210.406 40.0646 209.957 40.2088 209.586 40.4972C209.218 40.7855 208.938 41.1683 208.746 41.6456C208.557 42.1229 208.462 42.6465 208.462 43.2166C208.462 43.7867 208.557 44.3087 208.746 44.7827C208.938 45.2566 209.218 45.6361 209.586 45.9212C209.954 46.2062 210.403 46.3487 210.933 46.3487ZM216.247 47V39.3636H217.137V47H216.247ZM216.699 38.0511C216.517 38.0511 216.361 37.9898 216.232 37.8672C216.102 37.7412 216.038 37.5904 216.038 37.4148C216.038 37.2391 216.102 37.09 216.232 36.9673C216.361 36.8414 216.517 36.7784 216.699 36.7784C216.881 36.7784 217.037 36.8414 217.166 36.9673C217.296 37.09 217.36 37.2391 217.36 37.4148C217.36 37.5904 217.296 37.7412 217.166 37.8672C217.037 37.9898 216.881 38.0511 216.699 38.0511ZM220.362 42.2273V47H219.477V39.3636H220.337V40.5618H220.417C220.596 40.1707 220.874 39.8575 221.252 39.6222C221.633 39.3835 222.104 39.2642 222.664 39.2642C223.177 39.2642 223.628 39.3719 224.016 39.5874C224.407 39.7995 224.71 40.1127 224.926 40.527C225.145 40.9413 225.254 41.45 225.254 42.0533V47H224.369V42.108C224.369 41.4815 224.193 40.986 223.842 40.6214C223.494 40.2569 223.027 40.0746 222.44 40.0746C222.039 40.0746 221.683 40.1607 221.371 40.3331C221.06 40.5054 220.813 40.754 220.63 41.0788C220.451 41.4003 220.362 41.7831 220.362 42.2273ZM230.592 39.3636V40.1342H226.948V39.3636H230.592ZM228.086 37.5341H228.976V45.0064C228.976 45.3246 229.031 45.5748 229.14 45.7571C229.25 45.9361 229.392 46.0637 229.568 46.1399C229.744 46.2128 229.931 46.2493 230.13 46.2493C230.246 46.2493 230.345 46.2427 230.428 46.2294C230.511 46.2128 230.584 46.1963 230.647 46.1797L230.836 46.9801C230.75 47.0133 230.644 47.0431 230.518 47.0696C230.392 47.0994 230.236 47.1143 230.05 47.1143C229.725 47.1143 229.412 47.0431 229.111 46.9006C228.812 46.758 228.567 46.5459 228.375 46.2642C228.183 45.9825 228.086 45.6328 228.086 45.2152V37.5341ZM237.596 41.0391L236.786 41.2678C236.706 41.0391 236.593 40.8319 236.447 40.6463C236.302 40.4607 236.111 40.3132 235.876 40.2038C235.644 40.0945 235.355 40.0398 235.011 40.0398C234.494 40.0398 234.069 40.1624 233.738 40.4077C233.406 40.6529 233.241 40.9695 233.241 41.3572C233.241 41.6854 233.353 41.9522 233.579 42.1577C233.808 42.3598 234.159 42.5206 234.633 42.6399L235.786 42.9233C236.426 43.0791 236.905 43.326 237.223 43.6641C237.545 44.0021 237.705 44.4264 237.705 44.9368C237.705 45.3677 237.586 45.7505 237.347 46.0852C237.109 46.42 236.776 46.6835 236.348 46.8757C235.924 47.0646 235.432 47.1591 234.871 47.1591C234.126 47.1591 233.511 46.9917 233.027 46.657C232.543 46.3189 232.233 45.8317 232.097 45.1953L232.947 44.9865C233.057 45.4406 233.271 45.7836 233.589 46.0156C233.91 46.2476 234.333 46.3636 234.857 46.3636C235.443 46.3636 235.912 46.2327 236.263 45.9709C236.615 45.7057 236.79 45.3743 236.79 44.9766C236.79 44.6683 236.688 44.4098 236.482 44.201C236.277 43.9889 235.965 43.8331 235.548 43.7337L234.3 43.4354C233.637 43.2763 233.146 43.0244 232.828 42.6797C232.51 42.335 232.351 41.9074 232.351 41.397C232.351 40.9761 232.465 40.6065 232.694 40.2884C232.923 39.9669 233.237 39.715 233.638 39.5327C234.04 39.3504 234.497 39.2592 235.011 39.2592C235.71 39.2592 236.268 39.4183 236.686 39.7365C237.107 40.0514 237.41 40.4856 237.596 41.0391ZM244.823 36.8182L244.759 44.0817H243.884L243.819 36.8182H244.823ZM244.321 47.0746C244.126 47.0746 243.957 47.005 243.814 46.8658C243.675 46.7232 243.605 46.5542 243.605 46.3587C243.605 46.1598 243.675 45.9908 243.814 45.8516C243.957 45.7124 244.126 45.6428 244.321 45.6428C244.517 45.6428 244.684 45.7124 244.823 45.8516C244.966 45.9908 245.037 46.1598 245.037 46.3587C245.037 46.4879 245.004 46.6072 244.938 46.7166C244.875 46.826 244.789 46.9138 244.679 46.9801C244.573 47.0431 244.454 47.0746 244.321 47.0746Z" fill="#A1A1AA"/>
</g>
<path d="M972 -50C952.364 -50 904 -1.99411 904 17.4995C904 36.9931 952.364 85 972 85C991.636 85 1040 36.9923 1040 17.4995C1040 -1.99311 991.638 -50 972 -50ZM961.403 56.0981C953.123 53.8584 930.86 15.2009 933.117 6.98091C935.374 -1.23929 974.317 -23.3384 982.597 -21.0981C990.88 -18.8583 1013.14 19.7989 1010.89 28.019C1008.63 36.2388 969.685 58.3383 961.403 56.0981Z" fill="#836EF9"/>
<path d="M1066 18C1056.18 18 1032 41.8251 1032 51.4998C1032 61.1744 1056.18 85 1066 85C1075.82 85 1100 61.1739 1100 51.4998C1100 41.8256 1075.82 18 1066 18ZM1060.7 70.6561C1056.56 69.5445 1045.43 50.3589 1046.56 46.2794C1047.69 42.1998 1067.16 31.2321 1071.3 32.3439C1075.44 33.4555 1086.57 52.6409 1085.44 56.7205C1084.31 60.8 1064.84 71.7679 1060.7 70.6561Z" fill="#836EF9" fill-opacity="0.5"/>
<path d="M864 -34C854.182 -34 830 -10.1749 830 -0.500248C830 9.17436 854.182 33 864 33C873.818 33 898 9.17393 898 -0.500248C898 -10.1744 873.819 -34 864 -34ZM858.701 18.6561C854.561 17.5445 843.43 -1.64105 844.558 -5.72058C845.687 -9.80024 865.158 -20.7679 869.298 -19.6561C873.44 -18.5445 884.571 0.640926 883.443 4.72053C882.314 8.79999 862.843 19.7679 858.701 18.6561Z" fill="#836EF9" fill-opacity="0.25"/>
</g>
<defs>
<filter id="filter0_i_98_2164" x="0" y="0" width="1192" height="64" filterUnits="userSpaceOnUse" color-interpolation-filters="sRGB">
<feFlood flood-opacity="0" result="BackgroundImageFix"/>
<feBlend mode="normal" in="SourceGraphic" in2="BackgroundImageFix" result="shape"/>
<feColorMatrix in="SourceAlpha" type="matrix" values="0 0 0 0 0 0 0 0 0 0 0 0 0 0 0 0 0 0 127 0" result="hardAlpha"/>
<feOffset/>
<feGaussianBlur stdDeviation="8"/>
<feComposite in2="hardAlpha" operator="arithmetic" k2="-1" k3="1"/>
<feColorMatrix type="matrix" values="0 0 0 0 0.611765 0 0 0 0 0.388235 0 0 0 0 0.980392 0 0 0 0.5 0"/>
<feBlend mode="normal" in2="shape" result="effect1_innerShadow_98_2164"/>
</filter>
<linearGradient id="paint0_linear_98_2164" x1="24.2456" y1="20.5" x2="238.68" y2="20.5" gradientUnits="userSpaceOnUse">
<stop stop-color="#A1A1A1" stop-opacity="0.5"/>
<stop offset="0.533097" stop-color="#FAFAFA"/>
<stop offset="0.996993" stop-color="#A1A1A1" stop-opacity="0.5"/>
</linearGradient>
<clipPath id="clip0_98_2164">
<rect width="1192" height="64" fill="white"/>
</clipPath>
</defs>
</svg>
