<svg width="337" height="324" viewBox="0 0 337 324" fill="none" xmlns="http://www.w3.org/2000/svg">
<g filter="url(#filter0_d_896_5878)">
<mask id="path-1-outside-1_896_5878" maskUnits="userSpaceOnUse" x="31.7171" y="24.7039" width="212.418" height="168.811" fill="black">
<rect fill="white" x="31.7171" y="24.7039" width="212.418" height="168.811"/>
<path d="M73.685 91.6224C73.0918 91.3323 72.9402 90.8906 73.2303 90.2973L83.2743 69.7586C83.5644 69.1653 84.0061 69.0137 84.5994 69.3038L91.149 72.5068C91.7423 72.7969 91.8938 73.2386 91.6037 73.8319L81.5597 94.3706C81.2696 94.9639 80.8279 95.1154 80.2347 94.8253L73.685 91.6224ZM70.1375 81.1982C69.5442 80.9081 69.3927 80.4664 69.6828 79.8731L72.8683 73.3591C73.1584 72.7658 73.6001 72.6143 74.1934 72.9044L94.6965 82.931C95.2898 83.2211 95.4414 83.6628 95.1512 84.256L91.9657 90.7701C91.6756 91.3633 91.2339 91.5149 90.6406 91.2248L70.1375 81.1982ZM91.0313 115.675C90.438 115.385 90.2864 114.944 90.5765 114.35L108.802 77.0815L103.945 74.927C103.352 74.6368 103.2 74.1951 103.49 73.6019L107.25 65.9132C107.54 65.3199 107.982 65.1684 108.575 65.4585L124.309 73.1525C124.902 73.4426 125.054 73.8843 124.763 74.4776L102.43 120.147C102.14 120.74 101.698 120.892 101.105 120.602L91.0313 115.675ZM108.673 124.303C108.08 124.013 107.929 123.571 108.219 122.978L111.7 115.859C111.99 115.265 112.432 115.114 113.025 115.404L128.901 123.168L133.827 113.094L117.951 105.33C117.358 105.04 117.207 104.598 117.497 104.005L130.588 77.3258C130.878 76.7325 131.32 76.581 131.913 76.8711L158.752 89.9962C159.345 90.2863 159.497 90.728 159.207 91.3212L155.725 98.4404C155.435 99.0336 154.993 99.1852 154.4 98.8951L138.56 91.1489L133.634 101.222L149.474 108.969C150.067 109.259 150.219 109.701 149.929 110.294L140.877 128.804C140.668 129.231 140.34 129.541 139.893 129.734L128.674 133.554C128.273 133.711 127.836 133.674 127.361 133.442L108.673 124.303ZM161.949 150.356C161.64 150.205 161.414 150.036 161.271 149.848C161.151 149.672 161.108 149.489 161.142 149.3L164.934 131.173L161.623 129.554L165.801 121.011L169.111 122.63L179.733 111.283C179.873 111.117 180.044 111.038 180.245 111.048C180.481 111.046 180.753 111.121 181.062 111.272L190.067 115.676C190.661 115.966 190.812 116.407 190.522 117.001L188.677 120.774C188.515 121.106 188.363 121.356 188.223 121.522C188.083 121.689 187.913 121.856 187.713 122.023L176.509 131.585L175.917 132.795L174.803 149.144C174.794 149.463 174.761 149.741 174.704 149.977C174.659 150.191 174.578 150.416 174.462 150.653L172.6 154.462C172.31 155.055 171.868 155.207 171.275 154.916L161.949 150.356ZM143.083 141.13C142.49 140.84 142.338 140.398 142.628 139.805L164.962 94.1355C165.252 93.5422 165.693 93.3907 166.287 93.6808L175.791 98.3285C176.384 98.6186 176.536 99.0603 176.245 99.6536L153.912 145.323C153.622 145.916 153.18 146.068 152.587 145.778L143.083 141.13ZM181.828 160.077C181.235 159.787 181.083 159.346 181.374 158.752L199.599 121.484L194.742 119.329C194.149 119.039 193.997 118.597 194.287 118.004L198.047 110.315C198.337 109.722 198.779 109.57 199.372 109.861L215.106 117.555C215.699 117.845 215.851 118.286 215.56 118.88L193.227 164.549C192.937 165.142 192.495 165.294 191.902 165.004L181.828 160.077Z"/>
</mask>
<path d="M73.685 91.6224C73.0918 91.3323 72.9402 90.8906 73.2303 90.2973L83.2743 69.7586C83.5644 69.1653 84.0061 69.0137 84.5994 69.3038L91.149 72.5068C91.7423 72.7969 91.8938 73.2386 91.6037 73.8319L81.5597 94.3706C81.2696 94.9639 80.8279 95.1154 80.2347 94.8253L73.685 91.6224ZM70.1375 81.1982C69.5442 80.9081 69.3927 80.4664 69.6828 79.8731L72.8683 73.3591C73.1584 72.7658 73.6001 72.6143 74.1934 72.9044L94.6965 82.931C95.2898 83.2211 95.4414 83.6628 95.1512 84.256L91.9657 90.7701C91.6756 91.3633 91.2339 91.5149 90.6406 91.2248L70.1375 81.1982ZM91.0313 115.675C90.438 115.385 90.2864 114.944 90.5765 114.35L108.802 77.0815L103.945 74.927C103.352 74.6368 103.2 74.1951 103.49 73.6019L107.25 65.9132C107.54 65.3199 107.982 65.1684 108.575 65.4585L124.309 73.1525C124.902 73.4426 125.054 73.8843 124.763 74.4776L102.43 120.147C102.14 120.74 101.698 120.892 101.105 120.602L91.0313 115.675ZM108.673 124.303C108.08 124.013 107.929 123.571 108.219 122.978L111.7 115.859C111.99 115.265 112.432 115.114 113.025 115.404L128.901 123.168L133.827 113.094L117.951 105.33C117.358 105.04 117.207 104.598 117.497 104.005L130.588 77.3258C130.878 76.7325 131.32 76.581 131.913 76.8711L158.752 89.9962C159.345 90.2863 159.497 90.728 159.207 91.3212L155.725 98.4404C155.435 99.0336 154.993 99.1852 154.4 98.8951L138.56 91.1489L133.634 101.222L149.474 108.969C150.067 109.259 150.219 109.701 149.929 110.294L140.877 128.804C140.668 129.231 140.34 129.541 139.893 129.734L128.674 133.554C128.273 133.711 127.836 133.674 127.361 133.442L108.673 124.303ZM161.949 150.356C161.64 150.205 161.414 150.036 161.271 149.848C161.151 149.672 161.108 149.489 161.142 149.3L164.934 131.173L161.623 129.554L165.801 121.011L169.111 122.63L179.733 111.283C179.873 111.117 180.044 111.038 180.245 111.048C180.481 111.046 180.753 111.121 181.062 111.272L190.067 115.676C190.661 115.966 190.812 116.407 190.522 117.001L188.677 120.774C188.515 121.106 188.363 121.356 188.223 121.522C188.083 121.689 187.913 121.856 187.713 122.023L176.509 131.585L175.917 132.795L174.803 149.144C174.794 149.463 174.761 149.741 174.704 149.977C174.659 150.191 174.578 150.416 174.462 150.653L172.6 154.462C172.31 155.055 171.868 155.207 171.275 154.916L161.949 150.356ZM143.083 141.13C142.49 140.84 142.338 140.398 142.628 139.805L164.962 94.1355C165.252 93.5422 165.693 93.3907 166.287 93.6808L175.791 98.3285C176.384 98.6186 176.536 99.0603 176.245 99.6536L153.912 145.323C153.622 145.916 153.18 146.068 152.587 145.778L143.083 141.13ZM181.828 160.077C181.235 159.787 181.083 159.346 181.374 158.752L199.599 121.484L194.742 119.329C194.149 119.039 193.997 118.597 194.287 118.004L198.047 110.315C198.337 109.722 198.779 109.57 199.372 109.861L215.106 117.555C215.699 117.845 215.851 118.286 215.56 118.88L193.227 164.549C192.937 165.142 192.495 165.294 191.902 165.004L181.828 160.077Z" fill="white"/>
<path d="M82.7671 73.0507C85.3332 74.3056 90.349 77.569 92.6806 84.3633C95.0121 91.1577 93.0569 96.8132 91.802 99.3793L54.6586 81.2153C53.1136 84.3746 51.0891 90.5477 53.5723 97.7837C56.0554 105.02 61.4436 108.649 64.603 110.194L82.7671 73.0507ZM91.802 99.3793L101.846 78.8406L64.7026 60.6765L54.6586 81.2153L91.802 99.3793ZM101.846 78.8406C100.591 81.4067 97.3277 86.4225 90.5333 88.7541C83.739 91.0856 78.0834 89.1304 75.5173 87.8755L93.6814 50.7321C90.5221 49.1871 84.349 47.1627 77.113 49.6458C69.8769 52.1289 66.2476 57.5172 64.7026 60.6765L101.846 78.8406ZM75.5173 87.8755L82.067 91.0785L100.231 53.9351L93.6814 50.7321L75.5173 87.8755ZM82.067 91.0785C79.5009 89.8236 74.485 86.5602 72.1535 79.7659C69.8219 72.9715 71.7771 67.3159 73.032 64.7498L110.175 82.9139C111.72 79.7545 113.745 73.5815 111.262 66.3454C108.779 59.1094 103.39 55.4801 100.231 53.9351L82.067 91.0785ZM73.032 64.7498L62.988 85.2886L100.131 103.453L110.175 82.9139L73.032 64.7498ZM62.988 85.2886C64.2429 82.7225 67.5063 77.7066 74.3007 75.3751C81.095 73.0435 86.7506 74.9987 89.3167 76.2536L71.1526 113.397C74.312 114.942 80.485 116.966 87.7211 114.483C94.9571 112 98.5864 106.612 100.131 103.453L62.988 85.2886ZM89.3167 76.2536L82.7671 73.0507L64.603 110.194L71.1526 113.397L89.3167 76.2536ZM79.2195 62.6265C81.7856 63.8814 86.8015 67.1448 89.133 73.9392C91.4646 80.7335 89.5094 86.3891 88.2545 88.9552L51.1111 70.7911C49.5661 73.9504 47.5416 80.1235 50.0247 87.3595C52.5078 94.5956 57.8961 98.2249 61.0555 99.7699L79.2195 62.6265ZM88.2545 88.9552L91.44 82.4411L54.2966 64.2771L51.1111 70.7911L88.2545 88.9552ZM91.44 82.4411C90.1851 85.0072 86.9217 90.0231 80.1274 92.3546C73.333 94.6862 67.6774 92.731 65.1113 91.4761L83.2754 54.3327C80.116 52.7877 73.943 50.7632 66.7069 53.2463C59.4709 55.7295 55.8416 61.1177 54.2966 64.2771L91.44 82.4411ZM65.1113 91.4761L85.6145 101.503L103.779 64.3593L83.2754 54.3327L65.1113 91.4761ZM85.6145 101.503C83.0484 100.248 78.0326 96.9844 75.701 90.19C73.3695 83.3957 75.3247 77.7401 76.5795 75.174L113.723 93.3381C115.268 90.1787 117.292 84.0057 114.809 76.7696C112.326 69.5336 106.938 65.9043 103.779 64.3593L85.6145 101.503ZM76.5795 75.174L73.394 81.688L110.537 99.8521L113.723 93.3381L76.5795 75.174ZM73.394 81.688C74.6489 79.1219 77.9123 74.1061 84.7067 71.7745C91.501 69.443 97.1566 71.3982 99.7227 72.6531L81.5586 109.796C84.718 111.341 90.891 113.366 98.1271 110.883C105.363 108.4 108.992 103.011 110.537 99.8521L73.394 81.688ZM99.7227 72.6531L79.2195 62.6265L61.0555 99.7699L81.5586 109.796L99.7227 72.6531ZM108.802 77.0815L127.374 86.1636L136.801 66.886L117.185 58.1841L108.802 77.0815ZM103.945 74.927L94.863 93.4986L95.2094 93.668L95.5618 93.8244L103.945 74.927ZM100.113 97.1037C102.679 98.3586 107.695 101.622 110.027 108.416C112.358 115.211 110.403 120.866 109.148 123.432L72.0048 105.268C70.4598 108.428 68.4354 114.601 70.9185 121.837C73.4016 129.073 78.7899 132.702 81.9492 134.247L100.113 97.1037ZM109.148 123.432L127.374 86.1636L90.2302 67.9995L72.0048 105.268L109.148 123.432ZM117.185 58.1841L112.328 56.0295L95.5618 93.8244L100.419 95.979L117.185 58.1841ZM113.027 56.3553C115.593 57.6101 120.609 60.8735 122.941 67.6679C125.272 74.4622 123.317 80.1178 122.062 82.6839L84.9186 64.5198C83.3736 67.6792 81.3492 73.8523 83.8323 81.0883C86.3154 88.3243 91.7037 91.9536 94.863 93.4986L113.027 56.3553ZM122.062 82.6839L125.822 74.9952L88.6786 56.8312L84.9186 64.5198L122.062 82.6839ZM125.822 74.9952C124.567 77.5613 121.304 82.5772 114.509 84.9087C107.715 87.2403 102.059 85.2851 99.4933 84.0302L117.657 46.8868C114.498 45.3418 108.325 43.3173 101.089 45.8004C93.8529 48.2835 90.2236 53.6718 88.6786 56.8312L125.822 74.9952ZM99.4933 84.0302L115.227 91.7242L133.391 54.5808L117.657 46.8868L99.4933 84.0302ZM115.227 91.7242C112.661 90.4693 107.645 87.2059 105.313 80.4116C102.982 73.6172 104.937 67.9616 106.192 65.3955L143.335 83.5596C144.88 80.4002 146.905 74.2272 144.421 66.9911C141.938 59.7551 136.55 56.1258 133.391 54.5808L115.227 91.7242ZM106.192 65.3955L83.8582 111.065L121.002 129.229L143.335 83.5596L106.192 65.3955ZM83.8582 111.065C85.1131 108.499 88.3765 103.483 95.1709 101.151C101.965 98.8198 107.621 100.775 110.187 102.03L92.0228 139.173C95.1822 140.718 101.355 142.743 108.591 140.26C115.827 137.777 119.457 132.388 121.002 129.229L83.8582 111.065ZM110.187 102.03L100.113 97.1037L81.9492 134.247L92.0228 139.173L110.187 102.03ZM128.901 123.168L119.819 141.739L138.391 150.821L147.473 132.25L128.901 123.168ZM133.827 113.094L152.399 122.176L161.481 103.604L142.909 94.5222L133.827 113.094ZM117.497 104.005L98.9372 94.8984L98.9311 94.9108L98.925 94.9232L117.497 104.005ZM130.588 77.3258L149.147 86.4326L149.153 86.4202L149.159 86.4078L130.588 77.3258ZM138.56 91.1489L147.642 72.5772L129.07 63.4951L119.988 82.0668L138.56 91.1489ZM133.634 101.222L115.062 92.1404L105.98 110.712L124.552 119.794L133.634 101.222ZM139.893 129.734L146.557 149.304L147.331 149.04L148.083 148.716L139.893 129.734ZM128.674 133.554L122.01 113.984L121.561 114.137L121.12 114.31L128.674 133.554ZM117.755 105.731C120.322 106.986 125.337 110.249 127.669 117.044C130 123.838 128.045 129.494 126.79 132.06L89.647 113.896C88.102 117.055 86.0775 123.228 88.5606 130.464C91.0437 137.7 96.432 141.33 99.5914 142.875L117.755 105.731ZM126.79 132.06L130.272 124.941L93.1284 106.777L89.647 113.896L126.79 132.06ZM130.272 124.941C129.017 127.507 125.754 132.523 118.959 134.854C112.165 137.186 106.509 135.23 103.943 133.976L122.107 96.8322C118.948 95.2872 112.775 93.2627 105.539 95.7458C98.3027 98.229 94.6734 103.617 93.1284 106.777L130.272 124.941ZM103.943 133.976L119.819 141.739L137.983 104.596L122.107 96.8322L103.943 133.976ZM147.473 132.25L152.399 122.176L115.255 104.012L110.329 114.085L147.473 132.25ZM142.909 94.5222L127.033 86.7586L108.869 123.902L124.745 131.666L142.909 94.5222ZM127.033 86.7586C129.6 88.0135 134.615 91.2769 136.947 98.0712C139.279 104.866 137.323 110.521 136.068 113.087L98.925 94.9232C97.38 98.0825 95.3556 104.256 97.8387 111.492C100.322 118.728 105.71 122.357 108.869 123.902L127.033 86.7586ZM136.056 113.112L149.147 86.4326L112.028 68.219L98.9372 94.8984L136.056 113.112ZM149.159 86.4078C147.905 88.974 144.641 93.9898 137.847 96.3213C131.052 98.6529 125.397 96.6977 122.831 95.4428L140.995 58.2994C137.836 56.7544 131.662 54.7299 124.426 57.213C117.19 59.6962 113.561 65.0844 112.016 68.2438L149.159 86.4078ZM122.831 95.4428L149.67 108.568L167.834 71.4245L140.995 58.2994L122.831 95.4428ZM149.67 108.568C147.104 107.313 142.088 104.05 139.757 97.2552C137.425 90.4609 139.38 84.8053 140.635 82.2392L177.778 100.403C179.323 97.2439 181.348 91.0708 178.865 83.8348C176.382 76.5988 170.993 72.9695 167.834 71.4245L149.67 108.568ZM140.635 82.2392L137.154 89.3583L174.297 107.522L177.778 100.403L140.635 82.2392ZM137.154 89.3583C138.408 86.7922 141.672 81.7764 148.466 79.4449C155.261 77.1133 160.916 79.0685 163.482 80.3234L145.318 117.467C148.478 119.012 154.651 121.036 161.887 118.553C169.123 116.07 172.752 110.682 174.297 107.522L137.154 89.3583ZM163.482 80.3234L147.642 72.5772L129.478 109.721L145.318 117.467L163.482 80.3234ZM119.988 82.0668L115.062 92.1404L152.206 110.305L157.132 100.231L119.988 82.0668ZM124.552 119.794L140.392 127.54L158.556 90.397L142.716 82.6508L124.552 119.794ZM140.392 127.54C137.826 126.286 132.81 123.022 130.478 116.228C128.147 109.433 130.102 103.778 131.357 101.212L168.5 119.376C170.045 116.216 172.07 110.043 169.587 102.807C167.104 95.5713 161.715 91.942 158.556 90.397L140.392 127.54ZM131.357 101.212L122.305 119.722L159.449 137.886L168.5 119.376L131.357 101.212ZM122.305 119.722C124.322 115.598 127.74 112.462 131.703 110.752L148.083 148.716C152.94 146.62 157.015 142.863 159.449 137.886L122.305 119.722ZM133.229 110.164L122.01 113.984L135.337 153.124L146.557 149.304L133.229 110.164ZM121.12 114.31C127.313 111.879 132.994 113.183 136.443 114.87L118.279 152.013C122.678 154.164 129.233 155.543 136.227 152.798L121.12 114.31ZM136.443 114.87L117.755 105.731L99.5914 142.875L118.279 152.013L136.443 114.87ZM161.271 149.848L144.171 161.467L144.494 161.941L144.842 162.397L161.271 149.848ZM161.142 149.3L140.906 145.067L140.844 145.367L140.79 145.669L161.142 149.3ZM164.934 131.173L185.169 135.406L188.462 119.666L174.016 112.601L164.934 131.173ZM161.623 129.554L143.052 120.472L133.97 139.044L152.541 148.126L161.623 129.554ZM165.801 121.011L174.883 102.439L156.311 93.3573L147.229 111.929L165.801 121.011ZM169.111 122.63L160.029 141.202L173.76 147.916L184.204 136.758L169.111 122.63ZM179.733 111.283L194.826 125.411L195.197 125.014L195.547 124.598L179.733 111.283ZM180.245 111.048L179.213 131.696L179.819 131.726L180.427 131.721L180.245 111.048ZM188.223 121.522L172.408 108.207L172.408 108.207L188.223 121.522ZM187.713 122.023L174.431 106.181L174.362 106.239L174.293 106.298L187.713 122.023ZM176.509 131.585L163.089 115.859L159.823 118.646L157.938 122.503L176.509 131.585ZM175.917 132.795L157.346 123.713L155.567 127.35L155.292 131.39L175.917 132.795ZM174.803 149.144L154.178 147.738L154.15 148.149L154.138 148.561L174.803 149.144ZM174.704 149.977L154.605 145.14L154.541 145.405L154.485 145.671L174.704 149.977ZM171.031 131.784C172.394 132.451 175.214 134.045 177.699 137.298L144.842 162.397C147.614 166.026 150.886 167.959 152.867 168.927L171.031 131.784ZM178.37 138.229C180.928 141.993 182.514 147.214 181.494 152.93L140.79 145.669C139.702 151.764 141.374 157.351 144.171 161.467L178.37 138.229ZM181.377 153.533L185.169 135.406L144.698 126.94L140.906 145.067L181.377 153.533ZM174.016 112.601L170.705 110.982L152.541 148.126L155.852 149.745L174.016 112.601ZM180.195 138.636L184.373 130.093L147.229 111.929L143.052 120.472L180.195 138.636ZM156.719 139.583L160.029 141.202L178.194 104.058L174.883 102.439L156.719 139.583ZM184.204 136.758L194.826 125.411L164.64 97.1554L154.019 108.502L184.204 136.758ZM195.547 124.598C193.967 126.475 191.686 128.468 188.589 129.889C185.437 131.335 182.189 131.845 179.213 131.696L181.277 90.4008C174.029 90.0386 167.821 93.3324 163.918 97.9682L195.547 124.598ZM180.427 131.721C176.333 131.757 173.343 130.51 171.98 129.843L190.144 92.6999C188.164 91.7315 184.628 90.3356 180.062 90.3758L180.427 131.721ZM171.98 129.843L180.985 134.247L199.149 97.1039L190.144 92.6999L171.98 129.843ZM180.985 134.247C178.419 132.992 173.403 129.729 171.072 122.935C168.74 116.14 170.696 110.485 171.95 107.919L209.094 126.083C210.639 122.923 212.663 116.75 210.18 109.514C207.697 102.278 202.309 98.649 199.149 97.1039L180.985 134.247ZM171.95 107.919L170.105 111.692L207.249 129.856L209.094 126.083L171.95 107.919ZM170.105 111.692C170.23 111.437 170.448 111.012 170.768 110.484C171.072 109.983 171.608 109.158 172.408 108.207L204.037 134.837C205.762 132.789 206.782 130.81 207.249 129.856L170.105 111.692ZM172.408 108.207C173.168 107.304 173.885 106.638 174.431 106.181L200.996 137.865C201.94 137.073 202.997 136.073 204.037 134.837L172.408 108.207ZM174.293 106.298L163.089 115.859L189.93 147.31L201.134 137.748L174.293 106.298ZM157.938 122.503L157.346 123.713L194.489 141.877L195.081 140.667L157.938 122.503ZM155.292 131.39L154.178 147.738L195.429 150.549L196.543 134.2L155.292 131.39ZM154.138 148.561C154.158 147.861 154.241 146.651 154.605 145.14L194.804 154.815C195.281 152.831 195.431 151.065 195.469 149.727L154.138 148.561ZM154.485 145.671C154.856 143.925 155.415 142.543 155.891 141.571L193.034 159.735C193.741 158.289 194.462 156.456 194.924 154.284L154.485 145.671ZM155.891 141.571L154.028 145.38L191.171 163.544L193.034 159.735L155.891 141.571ZM154.028 145.38C155.283 142.814 158.546 137.798 165.341 135.466C172.135 133.135 177.791 135.09 180.357 136.345L162.193 173.488C165.352 175.033 171.525 177.058 178.761 174.575C185.997 172.091 189.626 166.703 191.171 163.544L154.028 145.38ZM180.357 136.345L171.031 131.784L152.867 168.927L162.193 173.488L180.357 136.345ZM152.165 122.558C154.731 123.813 159.747 127.077 162.078 133.871C164.41 140.665 162.455 146.321 161.2 148.887L124.056 130.723C122.511 133.882 120.487 140.055 122.97 147.291C125.453 154.527 130.841 158.157 134.001 159.702L152.165 122.558ZM161.2 148.887L183.533 103.218L146.39 85.0535L124.056 130.723L161.2 148.887ZM183.533 103.218C182.278 105.784 179.015 110.799 172.221 113.131C165.426 115.463 159.771 113.507 157.205 112.252L175.369 75.1091C172.209 73.5641 166.036 71.5396 158.8 74.0227C151.564 76.5058 147.935 81.8941 146.39 85.0535L183.533 103.218ZM157.205 112.252L166.709 116.9L184.873 79.7568L175.369 75.1091L157.205 112.252ZM166.709 116.9C164.143 115.645 159.127 112.382 156.795 105.588C154.464 98.7932 156.419 93.1376 157.674 90.5715L194.817 108.736C196.362 105.576 198.387 99.4032 195.903 92.1672C193.42 84.9311 188.032 81.3018 184.873 79.7568L166.709 116.9ZM157.674 90.5715L135.34 136.241L172.484 154.405L194.817 108.736L157.674 90.5715ZM135.34 136.241C136.595 133.675 139.859 128.659 146.653 126.327C153.447 123.996 159.103 125.951 161.669 127.206L143.505 164.349C146.664 165.894 152.837 167.919 160.073 165.436C167.309 162.953 170.939 157.564 172.484 154.405L135.34 136.241ZM161.669 127.206L152.165 122.558L134.001 159.702L143.505 164.349L161.669 127.206ZM199.599 121.484L218.171 130.566L227.598 111.288L207.982 102.586L199.599 121.484ZM194.742 119.329L185.66 137.901L186.006 138.07L186.359 138.226L194.742 119.329ZM190.91 141.506C193.476 142.761 198.492 146.024 200.824 152.818C203.155 159.613 201.2 165.268 199.945 167.834L162.802 149.67C161.257 152.83 159.232 159.003 161.715 166.239C164.199 173.475 169.587 177.104 172.746 178.649L190.91 141.506ZM199.945 167.834L218.171 130.566L181.027 112.402L162.802 149.67L199.945 167.834ZM207.982 102.586L203.125 100.432L186.359 138.226L191.216 140.381L207.982 102.586ZM203.824 100.757C206.39 102.012 211.406 105.276 213.738 112.07C216.069 118.864 214.114 124.52 212.859 127.086L175.716 108.922C174.171 112.081 172.146 118.254 174.629 125.49C177.112 132.726 182.501 136.356 185.66 137.901L203.824 100.757ZM212.859 127.086L216.619 119.397L179.476 101.233L175.716 108.922L212.859 127.086ZM216.619 119.397C215.364 121.963 212.101 126.979 205.306 129.311C198.512 131.642 192.856 129.687 190.29 128.432L208.454 91.2888C205.295 89.7438 199.122 87.7194 191.886 90.2025C184.65 92.6856 181.021 98.0738 179.476 101.233L216.619 119.397ZM190.29 128.432L206.024 136.126L224.188 98.9828L208.454 91.2888L190.29 128.432ZM206.024 136.126C203.458 134.871 198.442 131.608 196.11 124.814C193.779 118.019 195.734 112.364 196.989 109.798L234.132 127.962C235.677 124.802 237.702 118.629 235.218 111.393C232.735 104.157 227.347 100.528 224.188 98.9828L206.024 136.126ZM196.989 109.798L174.655 155.467L211.799 173.631L234.132 127.962L196.989 109.798ZM174.655 155.467C175.91 152.901 179.173 147.885 185.968 145.553C192.762 143.222 198.418 145.177 200.984 146.432L182.82 183.575C185.979 185.12 192.152 187.145 199.388 184.662C206.624 182.179 210.254 176.79 211.799 173.631L174.655 155.467ZM200.984 146.432L190.91 141.506L172.746 178.649L182.82 183.575L200.984 146.432Z" fill="#8BD34C" mask="url(#path-1-outside-1_896_5878)"/>
</g>
<g filter="url(#filter1_d_896_5878)">
<mask id="path-3-outside-2_896_5878" maskUnits="userSpaceOnUse" x="21.1463" y="107.495" width="273.322" height="180.14" fill="black">
<rect fill="white" x="21.1463" y="107.495" width="273.322" height="180.14"/>
<path d="M41.62 156.331C41.2307 156.14 41.1313 155.85 41.3217 155.461L55.9761 125.495C56.1665 125.105 56.4563 125.006 56.8456 125.196L69.7619 131.513C70.1356 131.695 70.3861 131.972 70.5134 132.343L72.9003 139.299C73.0356 139.693 73.0157 140.069 72.8405 140.427L68.8999 148.485C68.7172 148.859 68.4325 149.106 68.046 149.225L61.0902 151.612C60.7116 151.755 60.3355 151.735 59.9618 151.553L54.2394 148.754L49.0995 159.265C48.9091 159.654 48.6193 159.753 48.23 159.563L41.62 156.331ZM59.0979 143.258C60.3903 143.89 61.3957 144.063 62.1142 143.778C62.8482 143.5 63.5654 142.645 64.266 141.212C64.9665 139.78 65.2011 138.688 64.9697 137.939C64.7538 137.196 63.9997 136.509 62.7073 135.877C61.4305 135.253 60.425 135.079 59.691 135.357C58.9726 135.643 58.2631 136.502 57.5626 137.934C56.862 139.367 56.6197 140.454 56.8355 141.196C57.067 141.946 57.8211 142.633 59.0979 143.258ZM70.1408 170.278C69.7826 170.103 69.536 169.818 69.4007 169.424L67.0138 162.468C66.8709 162.09 66.8908 161.714 67.0736 161.34L73.7669 147.653C73.9496 147.279 74.2343 147.032 74.6208 146.913L81.5766 144.526C81.9707 144.391 82.3469 144.411 82.705 144.586L95.2009 150.696C95.5902 150.887 95.6896 151.177 95.4993 151.566L83.5061 176.09C83.3157 176.48 83.0259 176.579 82.6366 176.389L77.7784 174.013C77.576 173.914 77.4393 173.799 77.3684 173.668C77.3131 173.544 77.2498 173.398 77.1785 173.228L76.5818 171.489L74.8428 172.085C74.4642 172.228 74.0881 172.208 73.7144 172.026L70.1408 170.278ZM75.5349 166.172L77.1698 166.972C77.6681 167.216 78.0602 167.282 78.346 167.171C78.6319 167.06 78.9004 166.747 79.1517 166.233L85.7194 152.803L82.7764 151.364C82.2626 151.113 81.8627 151.043 81.5769 151.154C81.2911 151.265 81.0225 151.577 80.7712 152.091L74.8774 164.143C74.6261 164.657 74.5444 165.061 74.6323 165.355C74.7202 165.648 75.021 165.921 75.5349 166.172ZM89.2459 179.621C88.8566 179.431 88.7571 179.141 88.9475 178.751L100.941 154.227C101.131 153.838 101.421 153.738 101.81 153.929L105.36 155.665C105.656 155.809 105.848 156.067 105.937 156.439L106.935 160.197L110.829 158.686C111.092 158.583 111.355 158.596 111.62 158.726L114.142 159.959C114.532 160.15 114.631 160.44 114.441 160.829L111.985 165.851C111.863 166.1 111.764 166.263 111.687 166.342C111.618 166.404 111.49 166.448 111.305 166.473L103.422 167.914L96.3516 182.372C96.1612 182.762 95.8714 182.861 95.4821 182.671L89.2459 179.621ZM110.32 189.927C109.962 189.752 109.715 189.467 109.58 189.073L107.575 183.288C107.456 182.901 107.483 182.529 107.658 182.171L115.014 167.129L114.033 166.65C113.644 166.459 113.544 166.169 113.735 165.78L115.825 161.506C116.015 161.116 116.305 161.017 116.695 161.207L117.676 161.687L119.103 158.768C119.294 158.378 119.583 158.279 119.973 158.469L126.186 161.507C126.575 161.698 126.674 161.988 126.484 162.377L125.056 165.296L127.322 166.404C127.711 166.595 127.811 166.885 127.62 167.274L125.53 171.548C125.34 171.937 125.05 172.037 124.661 171.847L122.395 170.739L116.296 183.211C116.151 183.507 116.126 183.794 116.222 184.072L117.38 187.504C117.467 187.72 117.431 187.992 117.271 188.319L115.58 191.776C115.39 192.165 115.1 192.264 114.711 192.074L110.32 189.927ZM120.13 194.724C119.74 194.534 119.641 194.244 119.831 193.854L131.824 169.33C132.015 168.941 132.305 168.841 132.694 169.031L138.907 172.07C139.296 172.26 139.396 172.55 139.205 172.939L127.212 197.464C127.022 197.853 126.732 197.953 126.343 197.762L120.13 194.724ZM133.525 167.036C133.214 166.883 133.134 166.652 133.286 166.34L134.737 163.374C134.889 163.062 135.121 162.983 135.433 163.135L141.926 166.311C142.206 166.448 142.27 166.672 142.118 166.983L140.667 169.95C140.515 170.261 140.299 170.348 140.018 170.211L133.525 167.036ZM139.956 204.419C139.644 204.267 139.382 204.013 139.17 203.659L136.619 199.228L136.059 193.744C136.049 193.488 136.02 193.31 135.973 193.21C135.933 193.094 135.97 192.919 136.085 192.686L140.882 182.876C140.996 182.642 141.103 182.502 141.204 182.455C141.304 182.407 141.474 182.317 141.713 182.183L146.037 179.377L151.437 178.574C151.623 178.549 151.797 178.547 151.96 178.569C152.131 178.575 152.317 178.628 152.52 178.727L156.56 180.703C156.95 180.893 157.049 181.183 156.859 181.572L154.723 185.94C154.662 186.065 154.582 186.189 154.482 186.314C154.398 186.447 154.275 186.522 154.112 186.538L150.798 186.568L147.429 188.249L144.38 194.485L145.341 198.023L147.099 200.879C147.209 201.049 147.23 201.204 147.161 201.344C147.116 201.476 147.063 201.605 147.002 201.729L144.866 206.097C144.675 206.486 144.386 206.586 143.996 206.395L139.956 204.419ZM149.827 209.247C149.438 209.056 149.339 208.767 149.529 208.377L161.522 183.853C161.713 183.464 162.002 183.364 162.392 183.554L168.605 186.593C168.994 186.783 169.093 187.073 168.903 187.462L156.91 211.987C156.719 212.376 156.43 212.475 156.04 212.285L149.827 209.247ZM163.223 181.559C162.911 181.406 162.832 181.175 162.984 180.863L164.435 177.897C164.587 177.585 164.819 177.506 165.13 177.658L171.624 180.833C171.904 180.971 171.968 181.195 171.816 181.506L170.365 184.473C170.213 184.784 169.996 184.871 169.716 184.734L163.223 181.559ZM159.22 222.523C158.83 222.332 158.731 222.042 158.921 221.653L174.341 190.122C174.531 189.732 174.821 189.633 175.21 189.823L180.045 192.188C180.326 192.325 180.533 192.59 180.669 192.984L181.265 194.723L183.004 194.127C183.383 193.984 183.759 194.004 184.133 194.186L187.706 195.934C188.064 196.109 188.311 196.394 188.446 196.788L190.833 203.744C190.976 204.122 190.956 204.498 190.774 204.872L184.08 218.559C183.897 218.933 183.613 219.18 183.226 219.299L176.271 221.686C175.876 221.821 175.5 221.802 175.142 221.626L171.568 219.879C171.195 219.696 170.948 219.411 170.828 219.025L170.232 217.286L166.325 225.274C166.135 225.663 165.845 225.763 165.456 225.572L159.22 222.523ZM172.128 213.409L175.071 214.848C175.585 215.099 175.984 215.169 176.27 215.058C176.556 214.947 176.825 214.635 177.076 214.121L182.97 202.069C183.221 201.555 183.303 201.151 183.215 200.857C183.127 200.564 182.826 200.291 182.312 200.04L180.677 199.24C180.179 198.996 179.787 198.93 179.501 199.041C179.215 199.152 178.947 199.465 178.695 199.979L172.128 213.409ZM192.444 230.088C192.086 229.912 191.839 229.628 191.704 229.234L189.317 222.278C189.174 221.899 189.194 221.523 189.377 221.149L196.07 207.462C196.253 207.089 196.538 206.842 196.924 206.722L203.88 204.335C204.274 204.2 204.65 204.22 205.009 204.395L217.504 210.506C217.894 210.696 217.993 210.986 217.803 211.375L205.81 235.9C205.619 236.289 205.329 236.389 204.94 236.198L200.082 233.823C199.88 233.724 199.743 233.609 199.672 233.477C199.617 233.354 199.553 233.207 199.482 233.037L198.885 231.298L197.146 231.895C196.768 232.038 196.392 232.018 196.018 231.835L192.444 230.088ZM197.838 225.982L199.473 226.781C199.972 227.025 200.364 227.091 200.65 226.98C200.935 226.869 201.204 226.557 201.455 226.043L208.023 212.613L205.08 211.174C204.566 210.922 204.166 210.852 203.88 210.963C203.595 211.074 203.326 211.387 203.075 211.901L197.181 223.953C196.93 224.467 196.848 224.87 196.936 225.164C197.024 225.458 197.325 225.731 197.838 225.982ZM211.549 239.43C211.16 239.24 211.061 238.95 211.251 238.561L223.244 214.036C223.435 213.647 223.724 213.548 224.114 213.738L236.609 219.849C236.968 220.024 237.214 220.309 237.35 220.703L239.737 227.659C239.879 228.037 239.859 228.413 239.677 228.787L230.333 247.893C230.143 248.282 229.853 248.382 229.464 248.191L223.228 245.142C222.838 244.951 222.739 244.661 222.929 244.272L231.816 226.1C232.174 225.369 231.987 224.824 231.255 224.466L228.078 222.912L218.655 242.182C218.465 242.571 218.175 242.671 217.786 242.48L211.549 239.43ZM240.88 253.774C240.522 253.599 240.275 253.314 240.14 252.92L238.136 247.135C238.016 246.749 238.044 246.377 238.219 246.018L245.575 230.977L244.594 230.497C244.204 230.307 244.105 230.017 244.295 229.627L246.386 225.353C246.576 224.964 246.866 224.864 247.255 225.055L248.236 225.535L249.664 222.615C249.854 222.226 250.144 222.126 250.533 222.317L256.746 225.355C257.135 225.545 257.235 225.835 257.045 226.224L255.617 229.144L257.882 230.252C258.272 230.442 258.371 230.732 258.181 231.121L256.09 235.396C255.9 235.785 255.61 235.884 255.221 235.694L252.955 234.586L246.856 247.059C246.711 247.354 246.687 247.641 246.782 247.92L247.94 251.351C248.028 251.568 247.991 251.839 247.831 252.166L246.141 255.623C245.95 256.012 245.661 256.112 245.271 255.921L240.88 253.774ZM249.966 258.217C249.577 258.027 249.477 257.737 249.668 257.348L251.518 253.564C251.693 253.206 251.924 253.029 252.211 253.035L258.358 252.539L259.546 250.109L256.037 245.21C255.872 244.956 255.874 244.657 256.041 244.315L259.685 236.864C259.769 236.693 259.861 236.564 259.961 236.478C260.076 236.399 260.207 236.348 260.355 236.323L267.111 235.112C267.344 235.072 267.522 235.062 267.646 235.084C267.77 235.107 267.887 235.144 267.996 235.198L273.672 237.973C274.061 238.164 274.16 238.453 273.97 238.843L272.177 242.51C272.047 242.774 271.936 242.942 271.844 243.013C271.767 243.091 271.651 243.131 271.496 243.132L265.917 243.356L264.592 246.065L268.167 250.708C268.379 250.946 268.397 251.245 268.222 251.603L264.715 258.773C264.525 259.163 264.24 259.409 263.861 259.513L256.865 261.215C256.517 261.295 256.156 261.244 255.782 261.061L249.966 258.217Z"/>
</mask>
<path d="M41.62 156.331C41.2307 156.14 41.1313 155.85 41.3217 155.461L55.9761 125.495C56.1665 125.105 56.4563 125.006 56.8456 125.196L69.7619 131.513C70.1356 131.695 70.3861 131.972 70.5134 132.343L72.9003 139.299C73.0356 139.693 73.0157 140.069 72.8405 140.427L68.8999 148.485C68.7172 148.859 68.4325 149.106 68.046 149.225L61.0902 151.612C60.7116 151.755 60.3355 151.735 59.9618 151.553L54.2394 148.754L49.0995 159.265C48.9091 159.654 48.6193 159.753 48.23 159.563L41.62 156.331ZM59.0979 143.258C60.3903 143.89 61.3957 144.063 62.1142 143.778C62.8482 143.5 63.5654 142.645 64.266 141.212C64.9665 139.78 65.2011 138.688 64.9697 137.939C64.7538 137.196 63.9997 136.509 62.7073 135.877C61.4305 135.253 60.425 135.079 59.691 135.357C58.9726 135.643 58.2631 136.502 57.5626 137.934C56.862 139.367 56.6197 140.454 56.8355 141.196C57.067 141.946 57.8211 142.633 59.0979 143.258ZM70.1408 170.278C69.7826 170.103 69.536 169.818 69.4007 169.424L67.0138 162.468C66.8709 162.09 66.8908 161.714 67.0736 161.34L73.7669 147.653C73.9496 147.279 74.2343 147.032 74.6208 146.913L81.5766 144.526C81.9707 144.391 82.3469 144.411 82.705 144.586L95.2009 150.696C95.5902 150.887 95.6896 151.177 95.4993 151.566L83.5061 176.09C83.3157 176.48 83.0259 176.579 82.6366 176.389L77.7784 174.013C77.576 173.914 77.4393 173.799 77.3684 173.668C77.3131 173.544 77.2498 173.398 77.1785 173.228L76.5818 171.489L74.8428 172.085C74.4642 172.228 74.0881 172.208 73.7144 172.026L70.1408 170.278ZM75.5349 166.172L77.1698 166.972C77.6681 167.216 78.0602 167.282 78.346 167.171C78.6319 167.06 78.9004 166.747 79.1517 166.233L85.7194 152.803L82.7764 151.364C82.2626 151.113 81.8627 151.043 81.5769 151.154C81.2911 151.265 81.0225 151.577 80.7712 152.091L74.8774 164.143C74.6261 164.657 74.5444 165.061 74.6323 165.355C74.7202 165.648 75.021 165.921 75.5349 166.172ZM89.2459 179.621C88.8566 179.431 88.7571 179.141 88.9475 178.751L100.941 154.227C101.131 153.838 101.421 153.738 101.81 153.929L105.36 155.665C105.656 155.809 105.848 156.067 105.937 156.439L106.935 160.197L110.829 158.686C111.092 158.583 111.355 158.596 111.62 158.726L114.142 159.959C114.532 160.15 114.631 160.44 114.441 160.829L111.985 165.851C111.863 166.1 111.764 166.263 111.687 166.342C111.618 166.404 111.49 166.448 111.305 166.473L103.422 167.914L96.3516 182.372C96.1612 182.762 95.8714 182.861 95.4821 182.671L89.2459 179.621ZM110.32 189.927C109.962 189.752 109.715 189.467 109.58 189.073L107.575 183.288C107.456 182.901 107.483 182.529 107.658 182.171L115.014 167.129L114.033 166.65C113.644 166.459 113.544 166.169 113.735 165.78L115.825 161.506C116.015 161.116 116.305 161.017 116.695 161.207L117.676 161.687L119.103 158.768C119.294 158.378 119.583 158.279 119.973 158.469L126.186 161.507C126.575 161.698 126.674 161.988 126.484 162.377L125.056 165.296L127.322 166.404C127.711 166.595 127.811 166.885 127.62 167.274L125.53 171.548C125.34 171.937 125.05 172.037 124.661 171.847L122.395 170.739L116.296 183.211C116.151 183.507 116.126 183.794 116.222 184.072L117.38 187.504C117.467 187.72 117.431 187.992 117.271 188.319L115.58 191.776C115.39 192.165 115.1 192.264 114.711 192.074L110.32 189.927ZM120.13 194.724C119.74 194.534 119.641 194.244 119.831 193.854L131.824 169.33C132.015 168.941 132.305 168.841 132.694 169.031L138.907 172.07C139.296 172.26 139.396 172.55 139.205 172.939L127.212 197.464C127.022 197.853 126.732 197.953 126.343 197.762L120.13 194.724ZM133.525 167.036C133.214 166.883 133.134 166.652 133.286 166.34L134.737 163.374C134.889 163.062 135.121 162.983 135.433 163.135L141.926 166.311C142.206 166.448 142.27 166.672 142.118 166.983L140.667 169.95C140.515 170.261 140.299 170.348 140.018 170.211L133.525 167.036ZM139.956 204.419C139.644 204.267 139.382 204.013 139.17 203.659L136.619 199.228L136.059 193.744C136.049 193.488 136.02 193.31 135.973 193.21C135.933 193.094 135.97 192.919 136.085 192.686L140.882 182.876C140.996 182.642 141.103 182.502 141.204 182.455C141.304 182.407 141.474 182.317 141.713 182.183L146.037 179.377L151.437 178.574C151.623 178.549 151.797 178.547 151.96 178.569C152.131 178.575 152.317 178.628 152.52 178.727L156.56 180.703C156.95 180.893 157.049 181.183 156.859 181.572L154.723 185.94C154.662 186.065 154.582 186.189 154.482 186.314C154.398 186.447 154.275 186.522 154.112 186.538L150.798 186.568L147.429 188.249L144.38 194.485L145.341 198.023L147.099 200.879C147.209 201.049 147.23 201.204 147.161 201.344C147.116 201.476 147.063 201.605 147.002 201.729L144.866 206.097C144.675 206.486 144.386 206.586 143.996 206.395L139.956 204.419ZM149.827 209.247C149.438 209.056 149.339 208.767 149.529 208.377L161.522 183.853C161.713 183.464 162.002 183.364 162.392 183.554L168.605 186.593C168.994 186.783 169.093 187.073 168.903 187.462L156.91 211.987C156.719 212.376 156.43 212.475 156.04 212.285L149.827 209.247ZM163.223 181.559C162.911 181.406 162.832 181.175 162.984 180.863L164.435 177.897C164.587 177.585 164.819 177.506 165.13 177.658L171.624 180.833C171.904 180.971 171.968 181.195 171.816 181.506L170.365 184.473C170.213 184.784 169.996 184.871 169.716 184.734L163.223 181.559ZM159.22 222.523C158.83 222.332 158.731 222.042 158.921 221.653L174.341 190.122C174.531 189.732 174.821 189.633 175.21 189.823L180.045 192.188C180.326 192.325 180.533 192.59 180.669 192.984L181.265 194.723L183.004 194.127C183.383 193.984 183.759 194.004 184.133 194.186L187.706 195.934C188.064 196.109 188.311 196.394 188.446 196.788L190.833 203.744C190.976 204.122 190.956 204.498 190.774 204.872L184.08 218.559C183.897 218.933 183.613 219.18 183.226 219.299L176.271 221.686C175.876 221.821 175.5 221.802 175.142 221.626L171.568 219.879C171.195 219.696 170.948 219.411 170.828 219.025L170.232 217.286L166.325 225.274C166.135 225.663 165.845 225.763 165.456 225.572L159.22 222.523ZM172.128 213.409L175.071 214.848C175.585 215.099 175.984 215.169 176.27 215.058C176.556 214.947 176.825 214.635 177.076 214.121L182.97 202.069C183.221 201.555 183.303 201.151 183.215 200.857C183.127 200.564 182.826 200.291 182.312 200.04L180.677 199.24C180.179 198.996 179.787 198.93 179.501 199.041C179.215 199.152 178.947 199.465 178.695 199.979L172.128 213.409ZM192.444 230.088C192.086 229.912 191.839 229.628 191.704 229.234L189.317 222.278C189.174 221.899 189.194 221.523 189.377 221.149L196.07 207.462C196.253 207.089 196.538 206.842 196.924 206.722L203.88 204.335C204.274 204.2 204.65 204.22 205.009 204.395L217.504 210.506C217.894 210.696 217.993 210.986 217.803 211.375L205.81 235.9C205.619 236.289 205.329 236.389 204.94 236.198L200.082 233.823C199.88 233.724 199.743 233.609 199.672 233.477C199.617 233.354 199.553 233.207 199.482 233.037L198.885 231.298L197.146 231.895C196.768 232.038 196.392 232.018 196.018 231.835L192.444 230.088ZM197.838 225.982L199.473 226.781C199.972 227.025 200.364 227.091 200.65 226.98C200.935 226.869 201.204 226.557 201.455 226.043L208.023 212.613L205.08 211.174C204.566 210.922 204.166 210.852 203.88 210.963C203.595 211.074 203.326 211.387 203.075 211.901L197.181 223.953C196.93 224.467 196.848 224.87 196.936 225.164C197.024 225.458 197.325 225.731 197.838 225.982ZM211.549 239.43C211.16 239.24 211.061 238.95 211.251 238.561L223.244 214.036C223.435 213.647 223.724 213.548 224.114 213.738L236.609 219.849C236.968 220.024 237.214 220.309 237.35 220.703L239.737 227.659C239.879 228.037 239.859 228.413 239.677 228.787L230.333 247.893C230.143 248.282 229.853 248.382 229.464 248.191L223.228 245.142C222.838 244.951 222.739 244.661 222.929 244.272L231.816 226.1C232.174 225.369 231.987 224.824 231.255 224.466L228.078 222.912L218.655 242.182C218.465 242.571 218.175 242.671 217.786 242.48L211.549 239.43ZM240.88 253.774C240.522 253.599 240.275 253.314 240.14 252.92L238.136 247.135C238.016 246.749 238.044 246.377 238.219 246.018L245.575 230.977L244.594 230.497C244.204 230.307 244.105 230.017 244.295 229.627L246.386 225.353C246.576 224.964 246.866 224.864 247.255 225.055L248.236 225.535L249.664 222.615C249.854 222.226 250.144 222.126 250.533 222.317L256.746 225.355C257.135 225.545 257.235 225.835 257.045 226.224L255.617 229.144L257.882 230.252C258.272 230.442 258.371 230.732 258.181 231.121L256.09 235.396C255.9 235.785 255.61 235.884 255.221 235.694L252.955 234.586L246.856 247.059C246.711 247.354 246.687 247.641 246.782 247.92L247.94 251.351C248.028 251.568 247.991 251.839 247.831 252.166L246.141 255.623C245.95 256.012 245.661 256.112 245.271 255.921L240.88 253.774ZM249.966 258.217C249.577 258.027 249.477 257.737 249.668 257.348L251.518 253.564C251.693 253.206 251.924 253.029 252.211 253.035L258.358 252.539L259.546 250.109L256.037 245.21C255.872 244.956 255.874 244.657 256.041 244.315L259.685 236.864C259.769 236.693 259.861 236.564 259.961 236.478C260.076 236.399 260.207 236.348 260.355 236.323L267.111 235.112C267.344 235.072 267.522 235.062 267.646 235.084C267.77 235.107 267.887 235.144 267.996 235.198L273.672 237.973C274.061 238.164 274.16 238.453 273.97 238.843L272.177 242.51C272.047 242.774 271.936 242.942 271.844 243.013C271.767 243.091 271.651 243.131 271.496 243.132L265.917 243.356L264.592 246.065L268.167 250.708C268.379 250.946 268.397 251.245 268.222 251.603L264.715 258.773C264.525 259.163 264.24 259.409 263.861 259.513L256.865 261.215C256.517 261.295 256.156 261.244 255.782 261.061L249.966 258.217Z" fill="white"/>
<path d="M70.5134 132.343L59.1631 136.238L59.1631 136.238L70.5134 132.343ZM72.9003 139.299L84.2506 135.404L84.2506 135.404L72.9003 139.299ZM68.046 149.225L64.4966 137.762L64.3229 137.816L64.151 137.875L68.046 149.225ZM61.0902 151.612L57.1952 140.262L57.0233 140.321L56.8532 140.385L61.0902 151.612ZM54.2394 148.754L59.5111 137.974L48.7311 132.702L43.4593 143.482L54.2394 148.754ZM62.1142 143.778L57.8666 132.555L57.7749 132.589L57.6837 132.626L62.1142 143.778ZM64.9697 137.939L53.447 141.289L53.4743 141.383L53.5033 141.477L64.9697 137.939ZM59.691 135.357L55.4435 124.134L55.3517 124.169L55.2606 124.205L59.691 135.357ZM56.8355 141.196L45.3128 144.547L45.3402 144.641L45.3691 144.735L56.8355 141.196ZM46.8917 145.551C48.3588 146.268 51.2561 148.148 52.6038 152.076C53.9514 156.003 52.8191 159.266 52.1017 160.733L30.5416 150.189C29.6338 152.046 28.4561 155.649 29.9032 159.865C31.3503 164.082 34.492 166.203 36.3483 167.111L46.8917 145.551ZM52.1017 160.733L66.7562 130.766L45.1961 120.223L30.5416 150.189L52.1017 160.733ZM66.7562 130.766C66.0387 132.233 64.1583 135.131 60.2312 136.478C56.3042 137.826 53.0409 136.694 51.5739 135.976L62.1173 114.416C60.261 113.508 56.6582 112.331 52.4413 113.778C48.2244 115.225 46.1039 118.366 45.1961 120.223L66.7562 130.766ZM51.5739 135.976L64.4902 142.293L75.0336 120.732L62.1173 114.416L51.5739 135.976ZM64.4902 142.293C63.4619 141.79 62.3414 141.024 61.3318 139.908C60.312 138.781 59.5998 137.511 59.1631 136.238L81.8637 128.448C80.6359 124.87 78.0739 122.219 75.0336 120.732L64.4902 142.293ZM59.1631 136.238L61.55 143.194L84.2506 135.404L81.8637 128.448L59.1631 136.238ZM61.55 143.194C61.1713 142.09 60.9239 140.745 61.0037 139.241C61.084 137.726 61.4815 136.34 62.0605 135.156L83.6206 145.699C85.2628 142.341 85.3668 138.656 84.2506 135.404L61.55 143.194ZM62.0605 135.156L58.1199 143.214L79.6799 153.757L83.6206 145.699L62.0605 135.156ZM58.1199 143.214C58.6628 142.103 59.492 140.921 60.6902 139.882C61.8944 138.839 63.2224 138.157 64.4966 137.762L71.5953 160.689C75.2414 159.56 78.0897 157.009 79.6799 153.757L58.1199 143.214ZM64.151 137.875L57.1952 140.262L64.9852 162.963L71.9409 160.576L64.151 137.875ZM56.8532 140.385C58.1012 139.914 59.5681 139.637 61.1594 139.721C62.7426 139.805 64.1233 140.23 65.2335 140.773L54.6901 162.333C57.9419 163.923 61.7562 164.187 65.3272 162.84L56.8532 140.385ZM65.2335 140.773L59.5111 137.974L48.9677 159.534L54.6901 162.333L65.2335 140.773ZM43.4593 143.482L38.3194 153.993L59.8795 164.536L65.0194 154.026L43.4593 143.482ZM38.3194 153.993C39.0368 152.526 40.9172 149.629 44.8443 148.281C48.7714 146.933 52.0346 148.066 53.5017 148.783L42.9583 170.343C44.8146 171.251 48.4174 172.429 52.6343 170.982C56.8512 169.535 58.9717 166.393 59.8795 164.536L38.3194 153.993ZM53.5017 148.783L46.8917 145.551L36.3483 167.111L42.9583 170.343L53.5017 148.783ZM53.8262 154.038C55.7709 154.989 60.8598 157.188 66.5446 154.93L57.6837 132.626C59.9355 131.731 61.8642 131.865 62.8597 132.036C63.3758 132.125 63.7574 132.242 63.9824 132.321C64.2109 132.401 64.3432 132.465 64.3696 132.478L53.8262 154.038ZM66.3617 155.001C71.7368 152.967 74.1853 148.244 75.046 146.484L53.4859 135.941C53.3972 136.122 53.5379 135.778 54.0085 135.216C54.4452 134.696 55.6689 133.386 57.8666 132.555L66.3617 155.001ZM75.046 146.484C75.9067 144.724 78.1308 139.892 76.4361 134.4L53.5033 141.477C52.8104 139.232 53.0925 137.462 53.2353 136.798C53.3892 136.082 53.5746 135.759 53.4859 135.941L75.046 146.484ZM76.4924 134.588C74.7844 128.714 69.9237 126.048 67.979 125.097L57.4356 146.657C57.4091 146.644 57.2777 146.579 57.0742 146.448C56.8738 146.318 56.547 146.089 56.1599 145.736C55.4133 145.056 54.1235 143.616 53.447 141.289L76.4924 134.588ZM67.979 125.097C65.9449 124.102 61.005 122.029 55.4435 124.134L63.9386 146.58C61.7862 147.395 59.9471 147.275 58.9572 147.104C57.9946 146.938 57.4508 146.665 57.4356 146.657L67.979 125.097ZM55.2606 124.205C50.0143 126.289 47.6194 130.951 46.7826 132.662L68.3426 143.206C68.4402 143.006 68.3144 143.322 67.8722 143.857C67.472 144.342 66.2861 145.649 64.1215 146.509L55.2606 124.205ZM46.7826 132.662C45.9457 134.374 43.7366 139.126 45.3128 144.547L68.3583 137.846C69.0086 140.082 68.7048 141.821 68.5681 142.434C68.417 143.112 68.245 143.405 68.3426 143.206L46.7826 132.662ZM45.3691 144.735C47.1226 150.417 51.7921 153.043 53.8262 154.038L64.3696 132.478C64.3848 132.485 64.9349 132.746 65.657 133.404C66.3995 134.081 67.6233 135.459 68.302 137.658L45.3691 144.735ZM69.4007 169.424L80.751 165.529L80.751 165.529L69.4007 169.424ZM67.0138 162.468L78.364 158.573L78.3051 158.401L78.2409 158.231L67.0138 162.468ZM74.6208 146.913L78.1702 158.376L78.3439 158.322L78.5158 158.263L74.6208 146.913ZM81.5766 144.526L77.6816 133.176L77.6816 133.176L81.5766 144.526ZM77.3684 173.668L66.4174 178.574L66.6002 178.982L66.8129 179.376L77.3684 173.668ZM77.1785 173.228L65.8282 177.123L65.9579 177.501L66.1124 177.869L77.1785 173.228ZM76.5817 171.489L87.932 167.594L84.0371 156.243L72.6868 160.138L76.5817 171.489ZM74.8428 172.085L70.9478 160.735L70.7759 160.794L70.6058 160.858L74.8428 172.085ZM78.346 167.171L74.0005 155.985L74.0005 155.985L78.346 167.171ZM85.7194 152.803L96.4994 158.075L101.771 147.295L90.9911 142.023L85.7194 152.803ZM81.5769 151.154L85.9224 162.339L85.9224 162.339L81.5769 151.154ZM74.6323 165.355L86.1292 161.916L86.1292 161.916L74.6323 165.355ZM75.4125 159.498C76.5964 160.077 77.7615 160.927 78.7554 162.074C79.7418 163.212 80.3723 164.426 80.751 165.529L58.0504 173.319C59.1665 176.572 61.5108 179.416 64.8691 181.058L75.4125 159.498ZM80.751 165.529L78.364 158.573L55.6635 166.363L58.0504 173.319L80.751 165.529ZM78.2409 158.231C78.7118 159.479 78.9891 160.946 78.9047 162.538C78.8208 164.121 78.3965 165.501 77.8536 166.612L56.2935 156.068C54.7033 159.32 54.439 163.134 55.7866 166.705L78.2409 158.231ZM77.8536 166.612L84.5469 152.925L62.9869 142.381L56.2935 156.068L77.8536 166.612ZM84.5469 152.925C84.004 154.035 83.1748 155.217 81.9766 156.256C80.7724 157.299 79.4444 157.981 78.1702 158.376L71.0715 135.45C67.4254 136.579 64.5771 139.129 62.9869 142.381L84.5469 152.925ZM78.5158 158.263L85.4716 155.876L77.6816 133.176L70.7259 135.562L78.5158 158.263ZM85.4715 155.876C84.368 156.255 83.0232 156.502 81.5191 156.423C80.0037 156.342 78.6172 155.945 77.4333 155.366L87.9767 133.806C84.6185 132.163 80.9342 132.059 77.6816 133.176L85.4715 155.876ZM77.4333 155.366L89.9292 161.476L100.473 139.916L87.9767 133.806L77.4333 155.366ZM89.9292 161.476C88.4621 160.759 85.5648 158.879 84.2171 154.952C82.8695 151.024 84.0018 147.761 84.7192 146.294L106.279 156.838C107.187 154.981 108.365 151.379 106.918 147.162C105.471 142.945 102.329 140.824 100.473 139.916L89.9292 161.476ZM84.7192 146.294L72.7261 170.819L94.2861 181.362L106.279 156.838L84.7192 146.294ZM72.7261 170.819C73.4435 169.352 75.3239 166.454 79.251 165.107C83.1781 163.759 86.4413 164.891 87.9084 165.609L77.3649 187.169C79.2212 188.077 82.824 189.254 87.0409 187.807C91.2578 186.36 93.3783 183.219 94.2861 181.362L72.7261 170.819ZM87.9084 165.609L83.0502 163.233L72.5067 184.793L77.3649 187.169L87.9084 165.609ZM83.0502 163.233C84.012 163.703 86.3378 165.027 87.924 167.96L66.8129 179.376C68.5408 182.571 71.14 184.125 72.5067 184.793L83.0502 163.233ZM88.3194 168.761C88.3146 168.75 88.2908 168.697 88.2446 168.586L66.1124 177.869C66.2087 178.099 66.3115 178.338 66.4174 178.574L88.3194 168.761ZM88.5288 169.333L87.932 167.594L65.2315 175.384L65.8282 177.123L88.5288 169.333ZM72.6868 160.138L70.9478 160.735L78.7378 183.436L80.4767 182.839L72.6868 160.138ZM70.6058 160.858C71.8537 160.387 73.3207 160.11 74.912 160.194C76.4952 160.278 77.8759 160.703 78.9861 161.246L68.4427 182.806C71.6945 184.396 75.5088 184.66 79.0798 183.313L70.6058 160.858ZM78.9861 161.246L75.4125 159.498L64.8691 181.058L68.4427 182.806L78.9861 161.246ZM70.2631 176.952L71.8981 177.752L82.4415 156.192L80.8066 155.392L70.2631 176.952ZM71.8981 177.752C73.1611 178.37 77.5394 180.358 82.6915 178.356L74.0005 155.985C76.3912 155.056 78.5197 155.149 79.8388 155.372C81.1265 155.59 82.0314 155.991 82.4415 156.192L71.8981 177.752ZM82.6915 178.356C87.3845 176.533 89.3733 172.647 89.9317 171.505L68.3717 160.962C68.5353 160.627 68.9281 159.884 69.6616 159.031C70.3891 158.185 71.7843 156.846 74.0005 155.985L82.6915 178.356ZM89.9317 171.505L96.4994 158.075L74.9394 147.532L68.3717 160.962L89.9317 171.505ZM90.9911 142.023L88.0481 140.584L77.5047 162.144L80.4477 163.583L90.9911 142.023ZM88.0481 140.584C86.8915 140.018 82.4523 137.94 77.2314 139.968L85.9224 162.339C83.4643 163.294 81.2959 163.167 80.0184 162.943C78.7585 162.722 77.8816 162.328 77.5047 162.144L88.0481 140.584ZM77.2314 139.968C72.5385 141.791 70.5496 145.677 69.9912 146.819L91.5512 157.363C91.3876 157.697 90.9948 158.44 90.2613 159.294C89.5338 160.14 88.1386 161.478 85.9224 162.339L77.2314 139.968ZM69.9912 146.819L64.0974 158.871L85.6575 169.415L91.5512 157.363L69.9912 146.819ZM64.0974 158.871C63.539 160.013 61.6929 163.969 63.1354 168.793L86.1292 161.916C86.8104 164.194 86.6107 166.117 86.3893 167.211C86.1662 168.314 85.821 169.08 85.6575 169.415L64.0974 158.871ZM63.1354 168.793C64.7402 174.159 69.1065 176.387 70.2631 176.952L80.8066 155.392C81.1835 155.577 82.0323 156.027 82.9803 156.886C83.9415 157.757 85.3736 159.39 86.1292 161.916L63.1354 168.793ZM105.937 156.439L94.2642 159.222L94.2997 159.371L94.339 159.519L105.937 156.439ZM106.935 160.197L95.3373 163.278L98.7786 176.235L111.277 171.384L106.935 160.197ZM110.829 158.686L115.17 169.873L115.192 169.865L115.213 169.857L110.829 158.686ZM111.687 166.342L119.738 175.24L120 175.003L120.247 174.752L111.687 166.342ZM111.305 166.473L109.711 154.579L109.427 154.617L109.146 154.669L111.305 166.473ZM103.422 167.914L101.263 156.11L95.3034 157.2L92.6418 162.643L103.422 167.914ZM94.5176 168.841C95.9846 169.558 98.882 171.439 100.23 175.366C101.577 179.293 100.445 182.556 99.7275 184.023L78.1675 173.48C77.2597 175.336 76.0819 178.939 77.529 183.156C78.9761 187.373 82.1178 189.493 83.9742 190.401L94.5176 168.841ZM99.7275 184.023L111.721 159.499L90.1606 148.955L78.1675 173.48L99.7275 184.023ZM111.721 159.499C111.003 160.966 109.123 163.863 105.196 165.211C101.269 166.558 98.0054 165.426 96.5384 164.709L107.082 143.148C105.226 142.241 101.623 141.063 97.4058 142.51C93.1889 143.957 91.0684 147.099 90.1606 148.955L111.721 159.499ZM96.5384 164.709L100.089 166.445L110.632 144.885L107.082 143.148L96.5384 164.709ZM100.089 166.445C98.5613 165.698 97.1769 164.577 96.1032 163.136C95.0612 161.737 94.5287 160.331 94.2642 159.222L117.61 153.655C116.837 150.416 114.681 146.865 110.632 144.885L100.089 166.445ZM94.339 159.519L95.3373 163.278L118.533 157.117L117.535 153.358L94.339 159.519ZM111.277 171.384L115.17 169.873L106.487 147.499L102.594 149.01L111.277 171.384ZM115.213 169.857C113.871 170.384 112.308 170.688 110.625 170.604C108.955 170.52 107.506 170.072 106.348 169.506L116.892 147.946C113.757 146.413 109.992 146.124 106.445 147.516L115.213 169.857ZM106.348 169.506L108.871 170.739L119.414 149.179L116.892 147.946L106.348 169.506ZM108.871 170.739C107.404 170.022 104.506 168.142 103.159 164.214C101.811 160.287 102.943 157.024 103.661 155.557L125.221 166.101C126.129 164.244 127.306 160.641 125.859 156.425C124.412 152.208 121.271 150.087 119.414 149.179L108.871 170.739ZM103.661 155.557L101.205 160.579L122.765 171.122L125.221 166.101L103.661 155.557ZM101.205 160.579C101.24 160.508 101.359 160.266 101.561 159.934C101.665 159.763 101.828 159.506 102.049 159.202C102.258 158.915 102.616 158.452 103.127 157.931L120.247 174.752C121.852 173.118 122.684 171.287 122.765 171.122L101.205 160.579ZM103.636 157.443C105.217 156.013 106.8 155.361 107.645 155.071C108.554 154.759 109.3 154.634 109.711 154.579L112.898 178.367C113.483 178.288 116.797 177.901 119.738 175.24L103.636 157.443ZM109.146 154.669L101.263 156.11L105.581 179.719L113.463 178.277L109.146 154.669ZM92.6418 162.643L85.5716 177.101L107.132 187.644L114.202 173.186L92.6418 162.643ZM85.5716 177.101C86.289 175.633 88.1694 172.736 92.0965 171.388C96.0236 170.041 99.2868 171.173 100.754 171.891L90.2104 193.451C92.0667 194.358 95.6695 195.536 99.8864 194.089C104.103 192.642 106.224 189.5 107.132 187.644L85.5716 177.101ZM100.754 171.891L94.5176 168.841L83.9742 190.401L90.2104 193.451L100.754 171.891ZM109.58 189.073L120.93 185.178L120.924 185.161L120.918 185.144L109.58 189.073ZM107.575 183.288L96.1122 186.837L96.1713 187.028L96.2367 187.217L107.575 183.288ZM115.014 167.129L125.794 172.401L131.066 161.621L120.286 156.349L115.014 167.129ZM117.676 161.687L112.404 172.467L123.184 177.739L128.456 166.959L117.676 161.687ZM125.056 165.296L114.276 160.025L109.005 170.805L119.785 176.077L125.056 165.296ZM122.395 170.739L127.667 159.959L116.887 154.687L111.615 165.467L122.395 170.739ZM116.222 184.072L127.592 180.235L127.582 180.206L127.572 180.177L116.222 184.072ZM117.38 187.504L106.01 191.341L106.121 191.669L106.25 191.99L117.38 187.504ZM115.592 179.147C116.775 179.726 117.941 180.576 118.934 181.723C119.921 182.861 120.551 184.074 120.93 185.178L98.2295 192.968C99.3456 196.22 101.69 199.064 105.048 200.707L115.592 179.147ZM120.918 185.144L118.914 179.359L96.2367 187.217L98.2412 193.002L120.918 185.144ZM119.038 179.739C119.386 180.86 119.58 182.176 119.473 183.61C119.366 185.047 118.976 186.344 118.438 187.443L96.8784 176.899C95.3381 180.049 95.1034 183.58 96.1122 186.837L119.038 179.739ZM118.438 187.443L125.794 172.401L104.234 161.858L96.8784 176.899L118.438 187.443ZM120.286 156.349L119.305 155.869L108.762 177.43L109.742 177.909L120.286 156.349ZM119.305 155.869C120.772 156.587 123.669 158.467 125.017 162.394C126.365 166.321 125.232 169.585 124.515 171.052L102.955 160.508C102.047 162.365 100.869 165.967 102.316 170.184C103.763 174.401 106.905 176.522 108.762 177.43L119.305 155.869ZM124.515 171.052L126.605 166.777L105.045 156.234L102.955 160.508L124.515 171.052ZM126.605 166.777C125.888 168.245 124.007 171.142 120.08 172.49C116.153 173.837 112.89 172.705 111.423 171.987L121.966 150.427C120.11 149.52 116.507 148.342 112.29 149.789C108.073 151.236 105.953 154.378 105.045 156.234L126.605 166.777ZM111.423 171.987L112.404 172.467L122.947 150.907L121.966 150.427L111.423 171.987ZM128.456 166.959L129.883 164.039L108.323 153.496L106.896 156.415L128.456 166.959ZM129.883 164.039C129.166 165.506 127.285 168.404 123.358 169.751C119.431 171.099 116.168 169.967 114.701 169.249L125.244 147.689C123.388 146.781 119.785 145.604 115.568 147.051C111.352 148.498 109.231 151.639 108.323 153.496L129.883 164.039ZM114.701 169.249L120.914 172.287L131.457 150.727L125.244 147.689L114.701 169.249ZM120.914 172.287C119.447 171.57 116.55 169.69 115.202 165.763C113.854 161.835 114.987 158.572 115.704 157.105L137.264 167.649C138.172 165.792 139.35 162.19 137.902 157.973C136.455 153.756 133.314 151.635 131.457 150.727L120.914 172.287ZM115.704 157.105L114.276 160.025L135.836 170.568L137.264 167.649L115.704 157.105ZM119.785 176.077L122.05 177.184L132.594 155.624L130.328 154.516L119.785 176.077ZM122.05 177.184C120.583 176.467 117.686 174.587 116.338 170.66C114.99 166.732 116.123 163.469 116.84 162.002L138.4 172.546C139.308 170.689 140.486 167.087 139.039 162.87C137.592 158.653 134.45 156.532 132.594 155.624L122.05 177.184ZM116.84 162.002L114.75 166.276L136.31 176.82L138.4 172.546L116.84 162.002ZM114.75 166.276C115.467 164.809 117.348 161.912 121.275 160.564C125.202 159.217 128.465 160.349 129.932 161.067L119.389 182.627C121.245 183.534 124.848 184.712 129.065 183.265C133.282 181.818 135.402 178.676 136.31 176.82L114.75 166.276ZM129.932 161.067L127.667 159.959L117.123 181.519L119.389 182.627L129.932 161.067ZM111.615 165.467L105.516 177.939L127.076 188.483L133.175 176.01L111.615 165.467ZM105.516 177.939C104.155 180.721 103.615 184.307 104.871 187.967L127.572 180.177C128.055 181.584 128.258 183.117 128.125 184.673C127.994 186.201 127.562 187.488 127.076 188.483L105.516 177.939ZM104.852 187.91L106.01 191.341L128.75 183.667L127.592 180.235L104.852 187.91ZM106.25 191.99C104.499 187.646 105.985 184.082 106.491 183.047L128.051 193.591C128.877 191.902 130.435 187.794 128.51 183.018L106.25 191.99ZM106.491 183.047L104.8 186.504L126.36 197.047L128.051 193.591L106.491 183.047ZM104.8 186.504C105.518 185.037 107.398 182.139 111.325 180.792C115.252 179.444 118.516 180.577 119.983 181.294L109.439 202.854C111.296 203.762 114.898 204.94 119.115 203.492C123.332 202.045 125.453 198.904 126.36 197.047L104.8 186.504ZM119.983 181.294L115.592 179.147L105.048 200.707L109.439 202.854L119.983 181.294ZM125.401 183.944C126.868 184.661 129.766 186.542 131.113 190.469C132.461 194.396 131.329 197.659 130.611 199.126L109.051 188.583C108.143 190.439 106.966 194.042 108.413 198.259C109.86 202.476 113.002 204.596 114.858 205.504L125.401 183.944ZM130.611 199.126L142.604 174.602L121.044 164.058L109.051 188.583L130.611 199.126ZM142.604 174.602C141.887 176.069 140.007 178.966 136.08 180.314C132.152 181.661 128.889 180.529 127.422 179.812L137.966 158.251C136.109 157.344 132.507 156.166 128.29 157.613C124.073 159.06 121.952 162.202 121.044 164.058L142.604 174.602ZM127.422 179.812L133.635 182.85L144.179 161.29L137.966 158.251L127.422 179.812ZM133.635 182.85C132.168 182.132 129.271 180.252 127.923 176.325C126.575 172.398 127.708 169.135 128.425 167.668L149.985 178.211C150.893 176.355 152.071 172.752 150.624 168.535C149.177 164.318 146.035 162.198 144.179 161.29L133.635 182.85ZM128.425 167.668L116.432 192.192L137.992 202.736L149.985 178.211L128.425 167.668ZM116.432 192.192C117.149 190.725 119.03 187.828 122.957 186.48C126.884 185.132 130.147 186.265 131.614 186.982L121.071 208.542C122.927 209.45 126.53 210.628 130.747 209.181C134.964 207.734 137.084 204.592 137.992 202.736L116.432 192.192ZM131.614 186.982L125.401 183.944L114.858 205.504L121.071 208.542L131.614 186.982ZM138.797 156.256C140.303 156.992 143.225 158.897 144.582 162.853C145.94 166.809 144.803 170.106 144.067 171.612L122.506 161.068C121.618 162.886 120.444 166.455 121.882 170.643C123.319 174.831 126.436 176.927 128.253 177.816L138.797 156.256ZM144.067 171.612L145.517 168.646L123.957 158.102L122.506 161.068L144.067 171.612ZM145.517 168.646C144.781 170.152 142.876 173.073 138.92 174.431C134.964 175.789 131.667 174.652 130.161 173.915L140.704 152.355C138.887 151.466 135.318 150.293 131.13 151.73C126.942 153.167 124.846 156.285 123.957 158.102L145.517 168.646ZM130.161 173.915L136.654 177.091L147.198 155.53L140.704 152.355L130.161 173.915ZM136.654 177.091C134.822 176.195 131.833 174.038 130.645 169.875C129.545 166.023 130.73 162.954 131.338 161.712L152.898 172.255C153.657 170.702 154.887 167.365 153.723 163.288C152.471 158.901 149.31 156.563 147.198 155.53L136.654 177.091ZM131.338 161.712L129.887 164.678L151.447 175.221L152.898 172.255L131.338 161.712ZM129.887 164.678C130.495 163.436 132.189 160.616 135.905 159.119C139.92 157.5 143.458 158.535 145.29 159.431L134.747 180.991C136.859 182.024 140.645 183.084 144.877 181.378C148.809 179.794 150.688 176.775 151.447 175.221L129.887 164.678ZM145.29 159.431L138.797 156.256L128.253 177.816L134.747 180.991L145.29 159.431ZM139.17 203.659L128.77 209.645L128.821 209.735L128.875 209.824L139.17 203.659ZM136.619 199.228L124.681 200.447L124.941 202.995L126.219 205.214L136.619 199.228ZM136.059 193.744L124.068 194.213L124.083 194.589L124.121 194.963L136.059 193.744ZM135.973 193.21L124.623 197.105L124.838 197.734L125.122 198.335L135.973 193.21ZM141.713 182.183L147.575 192.653L147.917 192.462L148.244 192.249L141.713 182.183ZM146.037 179.377L144.271 167.508L141.693 167.891L139.506 169.31L146.037 179.377ZM151.437 178.574L149.844 166.68L149.757 166.691L149.671 166.704L151.437 178.574ZM151.96 178.569L150.368 190.463L150.942 190.54L151.521 190.561L151.96 178.569ZM154.482 186.314L145.102 178.83L144.698 179.337L144.35 179.884L154.482 186.314ZM154.112 186.538L154.218 198.538L154.788 198.533L155.355 198.474L154.112 186.538ZM150.798 186.568L150.692 174.568L147.921 174.593L145.441 175.83L150.798 186.568ZM147.429 188.249L142.072 177.511L138.435 179.326L136.649 182.977L147.429 188.249ZM144.38 194.485L133.6 189.213L131.615 193.272L132.8 197.632L144.38 194.485ZM145.341 198.023L133.761 201.17L134.215 202.839L135.121 204.312L145.341 198.023ZM147.099 200.879L136.879 207.168L136.954 207.291L137.032 207.411L147.099 200.879ZM147.161 201.344L136.381 196.072L136.053 196.743L135.81 197.45L147.161 201.344ZM145.227 193.639C147.375 194.689 148.717 196.246 149.465 197.493L128.875 209.824C130.047 211.781 131.914 213.845 134.684 215.199L145.227 193.639ZM149.57 197.672L147.019 193.241L126.219 205.214L128.77 209.645L149.57 197.672ZM148.557 198.009L147.997 192.525L124.121 194.963L124.681 200.447L148.557 198.009ZM148.05 193.275C148.038 192.974 148.01 190.596 146.824 188.086L125.122 198.335C124.763 197.574 124.553 196.914 124.43 196.464C124.303 195.999 124.228 195.608 124.183 195.329C124.096 194.79 124.075 194.386 124.068 194.213L148.05 193.275ZM147.323 189.315C148.261 192.048 147.947 194.366 147.708 195.492C147.452 196.691 147.062 197.554 146.865 197.958L125.305 187.414C124.993 188.051 124.527 189.119 124.234 190.492C123.957 191.792 123.645 194.256 124.623 197.105L147.323 189.315ZM146.865 197.958L151.662 188.148L130.102 177.604L125.305 187.414L146.865 197.958ZM151.662 188.148C151.518 188.442 151.177 189.103 150.585 189.879C150.092 190.524 148.745 192.164 146.328 193.305L136.079 171.604C133.562 172.793 132.111 174.527 131.511 175.312C130.811 176.228 130.36 177.076 130.102 177.604L151.662 188.148ZM146.328 193.305C146.846 193.061 147.343 192.783 147.575 192.653L135.85 171.712C135.774 171.755 135.746 171.77 135.754 171.766C135.759 171.763 135.786 171.748 135.831 171.726C135.871 171.705 135.959 171.661 136.079 171.604L146.328 193.305ZM148.244 192.249L152.569 189.444L139.506 169.31L135.181 172.116L148.244 192.249ZM147.803 191.246L153.203 190.443L149.671 166.704L144.271 167.508L147.803 191.246ZM153.03 190.467C152.304 190.565 151.398 190.601 150.368 190.463L153.552 166.675C152.197 166.494 150.942 166.533 149.844 166.68L153.03 190.467ZM151.521 190.561C149.569 190.489 148.094 189.921 147.248 189.507L157.791 167.947C156.54 167.335 154.693 166.661 152.399 166.577L151.521 190.561ZM147.248 189.507L151.289 191.483L161.832 169.923L157.791 167.947L147.248 189.507ZM151.289 191.483C149.822 190.765 146.924 188.885 145.577 184.958C144.229 181.031 145.361 177.768 146.079 176.301L167.639 186.844C168.547 184.988 169.724 181.385 168.277 177.168C166.83 172.951 163.689 170.831 161.832 169.923L151.289 191.483ZM146.079 176.301L143.943 180.668L165.503 191.212L167.639 186.844L146.079 176.301ZM143.943 180.668C144.32 179.898 144.737 179.288 145.102 178.83L163.862 193.799C164.427 193.091 165.004 192.231 165.503 191.212L143.943 180.668ZM144.35 179.884C145.211 178.528 146.452 177.21 148.109 176.206C149.753 175.21 151.425 174.753 152.869 174.603L155.355 198.474C158.989 198.095 162.471 196.121 164.614 192.744L144.35 179.884ZM154.006 174.539L150.692 174.568L150.904 198.567L154.218 198.538L154.006 174.539ZM145.441 175.83L142.072 177.511L152.787 198.986L156.156 197.305L145.441 175.83ZM136.649 182.977L133.6 189.213L155.16 199.757L158.209 193.52L136.649 182.977ZM132.8 197.632L133.761 201.17L156.921 194.876L155.96 191.338L132.8 197.632ZM135.121 204.312L136.879 207.168L157.319 194.591L155.561 191.734L135.121 204.312ZM137.032 207.411C136.393 206.427 135.587 204.838 135.303 202.716C134.999 200.449 135.373 198.134 136.381 196.072L157.941 206.616C160.411 201.565 158.795 196.859 157.166 194.348L137.032 207.411ZM135.81 197.45C135.925 197.115 136.062 196.783 136.222 196.457L157.782 207.001C158.063 206.426 158.306 205.837 158.512 205.238L135.81 197.45ZM136.222 196.457L134.086 200.825L155.646 211.369L157.782 207.001L136.222 196.457ZM134.086 200.825C134.803 199.358 136.683 196.461 140.611 195.113C144.538 193.766 147.801 194.898 149.268 195.615L138.725 217.175C140.581 218.083 144.184 219.261 148.401 217.814C152.617 216.367 154.738 213.225 155.646 211.369L134.086 200.825ZM149.268 195.615L145.227 193.639L134.684 215.199L138.725 217.175L149.268 195.615ZM155.099 198.467C156.566 199.184 159.464 201.065 160.811 204.992C162.159 208.919 161.026 212.182 160.309 213.649L138.749 203.106C137.841 204.962 136.663 208.565 138.111 212.782C139.558 216.999 142.699 219.119 144.556 220.027L155.099 198.467ZM160.309 213.649L172.302 189.125L150.742 178.581L138.749 203.106L160.309 213.649ZM172.302 189.125C171.585 190.592 169.704 193.489 165.777 194.837C161.85 196.184 158.587 195.052 157.12 194.334L167.663 172.774C165.807 171.867 162.204 170.689 157.987 172.136C153.77 173.583 151.65 176.725 150.742 178.581L172.302 189.125ZM157.12 194.334L163.333 197.373L173.876 175.813L167.663 172.774L157.12 194.334ZM163.333 197.373C161.866 196.655 158.968 194.775 157.621 190.848C156.273 186.921 157.405 183.658 158.123 182.19L179.683 192.734C180.591 190.878 181.768 187.275 180.321 183.058C178.874 178.841 175.733 176.72 173.876 175.813L163.333 197.373ZM158.123 182.19L146.13 206.715L167.69 217.258L179.683 192.734L158.123 182.19ZM146.13 206.715C146.847 205.248 148.728 202.351 152.655 201.003C156.582 199.655 159.845 200.788 161.312 201.505L150.769 223.065C152.625 223.973 156.228 225.151 160.445 223.704C164.661 222.257 166.782 219.115 167.69 217.258L146.13 206.715ZM161.312 201.505L155.099 198.467L144.556 220.027L150.769 223.065L161.312 201.505ZM168.495 170.779C170.001 171.515 172.922 173.42 174.28 177.376C175.637 181.332 174.501 184.629 173.764 186.135L152.204 175.591C151.315 177.409 150.142 180.978 151.579 185.166C153.016 189.354 156.134 191.45 157.951 192.339L168.495 170.779ZM173.764 186.135L175.215 183.169L153.655 172.625L152.204 175.591L173.764 186.135ZM175.215 183.169C174.478 184.675 172.574 187.596 168.618 188.954C164.662 190.311 161.365 189.175 159.859 188.438L170.402 166.878C168.585 165.989 165.016 164.816 160.828 166.253C156.64 167.69 154.544 170.808 153.655 172.625L175.215 183.169ZM159.859 188.438L166.352 191.614L176.895 170.053L170.402 166.878L159.859 188.438ZM166.352 191.614C164.52 190.718 161.53 188.56 160.342 184.397C159.243 180.545 160.428 177.476 161.035 176.234L182.596 186.778C183.355 185.225 184.584 181.888 183.421 177.811C182.169 173.424 179.008 171.086 176.895 170.053L166.352 191.614ZM161.035 176.234L159.585 179.201L181.145 189.744L182.596 186.778L161.035 176.234ZM159.585 179.201C160.192 177.959 161.887 175.139 165.602 173.642C169.618 172.023 173.156 173.058 174.988 173.954L164.444 195.514C166.557 196.547 170.343 197.607 174.575 195.901C178.506 194.317 180.385 191.298 181.145 189.744L159.585 179.201ZM174.988 173.954L168.495 170.779L157.951 192.339L164.444 195.514L174.988 173.954ZM180.669 192.984L192.019 189.089L192.019 189.089L180.669 192.984ZM181.265 194.723L169.915 198.618L173.81 209.969L185.16 206.074L181.265 194.723ZM183.004 194.127L186.899 205.477L187.071 205.418L187.241 205.354L183.004 194.127ZM188.446 196.788L199.797 192.893L199.797 192.893L188.446 196.788ZM190.833 203.744L179.483 207.639L179.542 207.811L179.606 207.981L190.833 203.744ZM183.226 219.299L179.677 207.836L179.503 207.89L179.331 207.949L183.226 219.299ZM176.271 221.686L180.165 233.036L180.165 233.036L176.271 221.686ZM170.828 219.025L182.291 215.475L182.238 215.302L182.179 215.13L170.828 219.025ZM170.232 217.286L181.582 213.391L172.179 185.989L159.452 212.014L170.232 217.286ZM172.128 213.409L161.348 208.137L156.076 218.917L166.856 224.189L172.128 213.409ZM176.27 215.058L180.616 226.244L180.616 226.244L176.27 215.058ZM183.215 200.857L194.712 197.419L194.712 197.419L183.215 200.857ZM179.501 199.041L183.847 210.227L183.847 210.227L179.501 199.041ZM164.491 211.743C165.958 212.46 168.856 214.34 170.203 218.267C171.551 222.195 170.419 225.458 169.701 226.925L148.141 216.381C147.233 218.238 146.056 221.841 147.503 226.057C148.95 230.274 152.092 232.395 153.948 233.303L164.491 211.743ZM169.701 226.925L185.121 195.393L163.561 184.85L148.141 216.381L169.701 226.925ZM185.121 195.393C184.404 196.86 182.523 199.758 178.596 201.105C174.669 202.453 171.406 201.321 169.939 200.603L180.482 179.043C178.626 178.135 175.023 176.958 170.806 178.405C166.589 179.852 164.469 182.994 163.561 184.85L185.121 195.393ZM169.939 200.603L174.774 202.968L185.317 181.408L180.482 179.043L169.939 200.603ZM174.774 202.968C171.337 201.287 169.858 198.452 169.318 196.879L192.019 189.089C191.209 186.728 189.314 183.362 185.317 181.408L174.774 202.968ZM169.318 196.879L169.915 198.618L192.616 190.828L192.019 189.089L169.318 196.879ZM185.16 206.074L186.899 205.477L179.109 182.776L177.37 183.373L185.16 206.074ZM187.241 205.354C185.993 205.825 184.526 206.102 182.935 206.018C181.352 205.934 179.971 205.509 178.861 204.966L189.404 183.406C186.153 181.816 182.338 181.552 178.767 182.899L187.241 205.354ZM178.861 204.966L182.435 206.714L192.978 185.154L189.404 183.406L178.861 204.966ZM182.435 206.714C181.251 206.135 180.086 205.285 179.092 204.138C178.105 203 177.475 201.786 177.096 200.683L199.797 192.893C198.681 189.64 196.336 186.796 192.978 185.154L182.435 206.714ZM177.096 200.683L179.483 207.639L202.184 199.849L199.797 192.893L177.096 200.683ZM179.606 207.981C179.135 206.733 178.858 205.266 178.942 203.675C179.026 202.091 179.451 200.711 179.994 199.6L201.554 210.144C203.144 206.892 203.408 203.078 202.06 199.507L179.606 207.981ZM179.994 199.6L173.3 213.287L194.86 223.831L201.554 210.144L179.994 199.6ZM173.3 213.287C173.843 212.177 174.672 210.995 175.87 209.956C177.075 208.913 178.403 208.231 179.677 207.836L186.776 230.762C190.422 229.633 193.27 227.083 194.86 223.831L173.3 213.287ZM179.331 207.949L172.376 210.336L180.165 233.036L187.121 230.65L179.331 207.949ZM172.376 210.336C173.479 209.957 174.824 209.71 176.328 209.79C177.843 209.87 179.23 210.267 180.414 210.846L169.87 232.406C173.229 234.049 176.913 234.153 180.165 233.036L172.376 210.336ZM180.414 210.846L176.84 209.099L166.297 230.659L169.87 232.406L180.414 210.846ZM176.84 209.099C177.95 209.642 179.133 210.471 180.171 211.669C181.215 212.873 181.897 214.201 182.291 215.475L159.365 222.574C160.494 226.22 163.045 229.069 166.297 230.659L176.84 209.099ZM182.179 215.13L181.582 213.391L158.881 221.181L159.478 222.92L182.179 215.13ZM159.452 212.014L155.545 220.002L177.105 230.546L181.012 222.558L159.452 212.014ZM155.545 220.002C156.263 218.535 158.143 215.638 162.07 214.29C165.997 212.943 169.261 214.075 170.728 214.792L160.184 236.352C162.04 237.26 165.643 238.438 169.86 236.991C174.077 235.544 176.198 232.402 177.105 230.546L155.545 220.002ZM170.728 214.792L164.491 211.743L153.948 233.303L160.184 236.352L170.728 214.792ZM166.856 224.189L169.799 225.628L180.342 204.068L177.399 202.629L166.856 224.189ZM169.799 225.628C170.956 226.194 175.395 228.272 180.616 226.244L171.925 203.873C174.383 202.918 176.551 203.045 177.829 203.269C179.089 203.49 179.965 203.884 180.342 204.068L169.799 225.628ZM180.616 226.244C185.309 224.421 187.298 220.535 187.856 219.393L166.296 208.849C166.459 208.515 166.852 207.772 167.586 206.918C168.313 206.072 169.708 204.734 171.925 203.873L180.616 226.244ZM187.856 219.393L193.75 207.341L172.19 196.797L166.296 208.849L187.856 219.393ZM193.75 207.341C194.308 206.199 196.154 202.243 194.712 197.419L171.718 204.296C171.037 202.018 171.236 200.095 171.458 199.001C171.681 197.898 172.026 197.132 172.19 196.797L193.75 207.341ZM194.712 197.419C193.107 192.053 188.741 189.825 187.584 189.26L177.041 210.82C176.664 210.635 175.815 210.185 174.867 209.326C173.906 208.455 172.473 206.822 171.718 204.296L194.712 197.419ZM187.584 189.26L185.949 188.46L175.406 210.02L177.041 210.82L187.584 189.26ZM185.949 188.46C184.686 187.843 180.308 185.854 175.156 187.856L183.847 210.227C181.456 211.156 179.327 211.063 178.008 210.84C176.721 210.622 175.816 210.221 175.406 210.02L185.949 188.46ZM175.156 187.856C170.463 189.679 168.474 193.565 167.915 194.707L189.475 205.25C189.312 205.585 188.919 206.328 188.186 207.181C187.458 208.027 186.063 209.366 183.847 210.227L175.156 187.856ZM167.915 194.707L161.348 208.137L182.908 218.68L189.475 205.25L167.915 194.707ZM191.704 229.234L203.054 225.339L191.704 229.234ZM189.317 222.278L200.668 218.383L200.609 218.211L200.544 218.041L189.317 222.278ZM196.924 206.722L200.474 218.185L200.647 218.132L200.819 218.073L196.924 206.722ZM203.88 204.335L199.985 192.985L199.985 192.985L203.88 204.335ZM199.672 233.477L188.721 238.384L188.904 238.792L189.116 239.185L199.672 233.477ZM199.482 233.037L188.132 236.932L188.261 237.31L188.416 237.679L199.482 233.037ZM198.885 231.298L210.236 227.403L206.341 216.053L194.99 219.948L198.885 231.298ZM197.146 231.895L193.251 220.545L193.079 220.604L192.909 220.668L197.146 231.895ZM200.65 226.98L196.304 215.795L196.304 215.795L200.65 226.98ZM208.023 212.613L218.803 217.885L224.075 207.105L213.295 201.833L208.023 212.613ZM203.88 210.963L208.226 222.149L208.226 222.149L203.88 210.963ZM196.936 225.164L208.433 221.726L208.433 221.726L196.936 225.164ZM197.716 219.308C198.9 219.887 200.065 220.737 201.059 221.884C202.045 223.022 202.676 224.235 203.054 225.339L180.354 233.129C181.47 236.381 183.814 239.225 187.173 240.868L197.716 219.308ZM203.054 225.339L200.668 218.383L177.967 226.173L180.354 233.129L203.054 225.339ZM200.544 218.041C201.015 219.289 201.293 220.756 201.208 222.347C201.124 223.93 200.7 225.311 200.157 226.421L178.597 215.878C177.007 219.13 176.743 222.944 178.09 226.515L200.544 218.041ZM200.157 226.421L206.85 212.734L185.29 202.191L178.597 215.878L200.157 226.421ZM206.85 212.734C206.308 213.844 205.478 215.027 204.28 216.065C203.076 217.109 201.748 217.791 200.474 218.185L193.375 195.259C189.729 196.388 186.881 198.939 185.29 202.191L206.85 212.734ZM200.819 218.073L207.775 215.686L199.985 192.985L193.029 195.372L200.819 218.073ZM207.775 215.686C206.672 216.064 205.327 216.312 203.823 216.232C202.307 216.152 200.921 215.754 199.737 215.175L210.28 193.615C206.922 191.973 203.238 191.869 199.985 192.985L207.775 215.686ZM199.737 215.175L212.233 221.286L222.776 199.726L210.28 193.615L199.737 215.175ZM212.233 221.286C210.766 220.569 207.868 218.688 206.521 214.761C205.173 210.834 206.305 207.571 207.023 206.104L228.583 216.647C229.491 214.791 230.668 211.188 229.221 206.971C227.774 202.754 224.632 200.634 222.776 199.726L212.233 221.286ZM207.023 206.104L195.03 230.628L216.59 241.172L228.583 216.647L207.023 206.104ZM195.03 230.628C195.747 229.161 197.627 226.264 201.555 224.916C205.482 223.569 208.745 224.701 210.212 225.418L199.668 246.978C201.525 247.886 205.128 249.064 209.344 247.617C213.561 246.17 215.682 243.028 216.59 241.172L195.03 230.628ZM210.212 225.418L205.354 223.043L194.81 244.603L199.668 246.978L210.212 225.418ZM205.354 223.043C206.316 223.513 208.641 224.836 210.227 227.769L189.116 239.185C190.844 242.381 193.444 243.934 194.81 244.603L205.354 223.043ZM210.623 228.571C210.618 228.56 210.594 228.506 210.548 228.396L188.416 237.679C188.512 237.908 188.615 238.148 188.721 238.384L210.623 228.571ZM210.832 229.142L210.236 227.403L187.535 235.193L188.132 236.932L210.832 229.142ZM194.99 219.948L193.251 220.545L201.041 243.245L202.78 242.649L194.99 219.948ZM192.909 220.668C194.157 220.197 195.624 219.92 197.215 220.004C198.799 220.088 200.179 220.512 201.29 221.055L190.746 242.615C193.998 244.205 197.812 244.47 201.383 243.122L192.909 220.668ZM201.29 221.055L197.716 219.308L187.173 240.868L190.746 242.615L201.29 221.055ZM192.567 236.762L194.202 237.561L204.745 216.001L203.11 215.202L192.567 236.762ZM194.202 237.561C195.465 238.179 199.843 240.167 204.995 238.166L196.304 215.795C198.695 214.866 200.823 214.959 202.142 215.182C203.43 215.4 204.335 215.801 204.745 216.001L194.202 237.561ZM204.995 238.166C209.688 236.343 211.677 232.457 212.235 231.315L190.675 220.771C190.839 220.437 191.232 219.694 191.965 218.841C192.693 217.994 194.088 216.656 196.304 215.795L204.995 238.166ZM212.235 231.315L218.803 217.885L197.243 207.341L190.675 220.771L212.235 231.315ZM213.295 201.833L210.352 200.394L199.808 221.954L202.751 223.393L213.295 201.833ZM210.352 200.394C209.195 199.828 204.756 197.749 199.535 199.778L208.226 222.149C205.768 223.104 203.599 222.976 202.322 222.752C201.062 222.531 200.185 222.138 199.808 221.954L210.352 200.394ZM199.535 199.778C194.842 201.601 192.853 205.487 192.295 206.629L213.855 217.172C213.691 217.507 213.298 218.25 212.565 219.103C211.837 219.95 210.442 221.288 208.226 222.149L199.535 199.778ZM192.295 206.629L186.401 218.681L207.961 229.224L213.855 217.172L192.295 206.629ZM186.401 218.681C185.842 219.823 183.996 223.779 185.439 228.602L208.433 221.726C209.114 224.004 208.914 225.927 208.693 227.021C208.47 228.124 208.125 228.89 207.961 229.224L186.401 218.681ZM185.439 228.602C187.044 233.969 191.41 236.196 192.567 236.762L203.11 215.202C203.487 215.386 204.336 215.837 205.284 216.696C206.245 217.566 207.677 219.2 208.433 221.726L185.439 228.602ZM237.35 220.703L248.7 216.808L248.7 216.808L237.35 220.703ZM239.737 227.659L228.386 231.554L228.445 231.725L228.509 231.896L239.737 227.659ZM228.078 222.912L233.35 212.132L222.57 206.861L217.298 217.641L228.078 222.912ZM216.821 228.65C218.288 229.368 221.186 231.248 222.533 235.175C223.881 239.102 222.748 242.366 222.031 243.833L200.471 233.289C199.563 235.146 198.385 238.748 199.833 242.965C201.28 247.182 204.421 249.303 206.278 250.211L216.821 228.65ZM222.031 243.833L234.024 219.308L212.464 208.765L200.471 233.289L222.031 243.833ZM234.024 219.308C233.307 220.775 231.426 223.673 227.499 225.02C223.572 226.368 220.309 225.236 218.842 224.518L229.385 202.958C227.529 202.05 223.926 200.873 219.709 202.32C215.492 203.767 213.372 206.908 212.464 208.765L234.024 219.308ZM218.842 224.518L231.338 230.629L241.881 209.069L229.385 202.958L218.842 224.518ZM231.338 230.629C230.154 230.05 228.989 229.2 227.995 228.053C227.008 226.915 226.378 225.701 225.999 224.598L248.7 216.808C247.584 213.555 245.239 210.711 241.881 209.069L231.338 230.629ZM225.999 224.598L228.386 231.554L251.087 223.764L248.7 216.808L225.999 224.598ZM228.509 231.896C228.038 230.648 227.761 229.181 227.846 227.589C227.929 226.006 228.354 224.625 228.897 223.515L250.457 234.059C252.047 230.807 252.311 226.993 250.964 223.422L228.509 231.896ZM228.897 223.515L219.553 242.621L241.113 253.165L250.457 234.059L228.897 223.515ZM219.553 242.621C220.271 241.154 222.151 238.257 226.078 236.909C230.005 235.561 233.269 236.694 234.736 237.411L224.192 258.971C226.049 259.879 229.651 261.057 233.868 259.61C238.085 258.163 240.206 255.021 241.113 253.165L219.553 242.621ZM234.736 237.411L228.499 234.361L217.956 255.922L224.192 258.971L234.736 237.411ZM228.499 234.361C229.966 235.079 232.864 236.959 234.211 240.886C235.559 244.813 234.427 248.077 233.709 249.544L212.149 239C211.242 240.857 210.064 244.459 211.511 248.676C212.958 252.893 216.1 255.014 217.956 255.922L228.499 234.361ZM233.709 249.544L242.596 231.372L221.036 220.829L212.149 239L233.709 249.544ZM242.596 231.372C243.587 229.345 244.785 225.592 243.294 221.248C241.803 216.904 238.554 214.677 236.527 213.686L225.983 235.246C224.687 234.612 221.897 232.838 220.594 229.038C219.29 225.238 220.402 222.125 221.036 220.829L242.596 231.372ZM236.527 213.686L233.35 212.132L222.807 233.693L225.983 235.246L236.527 213.686ZM217.298 217.641L207.875 236.91L229.435 247.454L238.858 228.184L217.298 217.641ZM207.875 236.91C208.592 235.443 210.473 232.546 214.4 231.198C218.327 229.85 221.59 230.983 223.057 231.7L212.514 253.26C214.37 254.168 217.973 255.346 222.19 253.899C226.407 252.452 228.527 249.31 229.435 247.454L207.875 236.91ZM223.057 231.7L216.821 228.65L206.278 250.211L212.514 253.26L223.057 231.7ZM240.14 252.92L251.491 249.025L251.485 249.008L251.479 248.991L240.14 252.92ZM238.136 247.135L226.673 250.685L226.732 250.876L226.797 251.064L238.136 247.135ZM245.575 230.977L256.355 236.248L261.626 225.468L250.846 220.197L245.575 230.977ZM248.236 225.535L242.964 236.315L253.744 241.586L259.016 230.806L248.236 225.535ZM255.617 229.144L244.837 223.872L239.565 234.652L250.345 239.924L255.617 229.144ZM252.955 234.586L258.227 223.806L247.447 218.534L242.175 229.314L252.955 234.586ZM246.782 247.92L258.152 244.082L258.142 244.053L258.133 244.025L246.782 247.92ZM247.94 251.351L236.571 255.189L236.681 255.517L236.811 255.837L247.94 251.351ZM246.152 242.994C247.336 243.573 248.501 244.423 249.495 245.57C250.481 246.708 251.112 247.922 251.491 249.025L228.79 256.815C229.906 260.068 232.25 262.912 235.609 264.554L246.152 242.994ZM251.479 248.991L249.474 243.206L226.797 251.064L228.802 256.849L251.479 248.991ZM249.599 243.586C249.946 244.707 250.14 246.024 250.034 247.457C249.927 248.894 249.536 250.192 248.999 251.29L227.439 240.747C225.899 243.896 225.664 247.427 226.673 250.685L249.599 243.586ZM248.999 251.29L256.355 236.248L234.795 225.705L227.439 240.747L248.999 251.29ZM250.846 220.197L249.865 219.717L239.322 241.277L240.303 241.757L250.846 220.197ZM249.865 219.717C251.332 220.434 254.23 222.315 255.577 226.242C256.925 230.169 255.793 233.432 255.075 234.899L233.515 224.356C232.608 226.212 231.43 229.815 232.877 234.032C234.324 238.249 237.466 240.369 239.322 241.277L249.865 219.717ZM255.075 234.899L257.166 230.625L235.606 220.081L233.515 224.356L255.075 234.899ZM257.166 230.625C256.448 232.092 254.568 234.989 250.641 236.337C246.714 237.685 243.45 236.552 241.983 235.835L252.527 214.275C250.67 213.367 247.068 212.189 242.851 213.636C238.634 215.083 236.513 218.225 235.606 220.081L257.166 230.625ZM241.983 235.835L242.964 236.315L253.508 214.755L252.527 214.275L241.983 235.835ZM259.016 230.806L260.444 227.887L238.884 217.343L237.456 220.263L259.016 230.806ZM260.444 227.887C259.726 229.354 257.846 232.251 253.919 233.599C249.992 234.946 246.729 233.814 245.262 233.097L255.805 211.537C253.949 210.629 250.346 209.451 246.129 210.898C241.912 212.345 239.792 215.487 238.884 217.343L260.444 227.887ZM245.262 233.097L251.474 236.135L262.018 214.575L255.805 211.537L245.262 233.097ZM251.474 236.135C250.007 235.417 247.11 233.537 245.762 229.61C244.415 225.683 245.547 222.42 246.264 220.953L267.825 231.496C268.732 229.64 269.91 226.037 268.463 221.82C267.016 217.603 263.874 215.483 262.018 214.575L251.474 236.135ZM246.264 220.953L244.837 223.872L266.397 234.416L267.825 231.496L246.264 220.953ZM250.345 239.924L252.611 241.032L263.154 219.472L260.888 218.364L250.345 239.924ZM252.611 241.032C251.144 240.314 248.246 238.434 246.899 234.507C245.551 230.58 246.683 227.317 247.401 225.85L268.961 236.393C269.869 234.537 271.046 230.934 269.599 226.717C268.152 222.5 265.01 220.38 263.154 219.472L252.611 241.032ZM247.401 225.85L245.31 230.124L266.871 240.667L268.961 236.393L247.401 225.85ZM245.31 230.124C246.028 228.657 247.908 225.759 251.835 224.412C255.762 223.064 259.026 224.197 260.493 224.914L249.949 246.474C251.806 247.382 255.408 248.56 259.625 247.112C263.842 245.665 265.963 242.524 266.871 240.667L245.31 230.124ZM260.493 224.914L258.227 223.806L247.684 245.366L249.949 246.474L260.493 224.914ZM242.175 229.314L236.076 241.787L257.636 252.33L263.735 239.858L242.175 229.314ZM236.076 241.787C234.716 244.568 234.176 248.154 235.432 251.815L258.133 244.025C258.615 245.431 258.819 246.964 258.685 248.52C258.554 250.049 258.122 251.336 257.636 252.33L236.076 241.787ZM235.412 251.757L236.571 255.189L259.31 247.514L258.152 244.082L235.412 251.757ZM236.811 255.837C235.06 251.494 236.545 247.929 237.051 246.895L258.611 257.438C259.437 255.749 260.996 251.642 259.07 246.865L236.811 255.837ZM237.051 246.895L235.361 250.351L256.921 260.895L258.611 257.438L237.051 246.895ZM235.361 250.351C236.078 248.884 237.959 245.987 241.886 244.639C245.813 243.292 249.076 244.424 250.543 245.141L240 266.701C241.856 267.609 245.459 268.787 249.676 267.34C253.893 265.893 256.013 262.751 256.921 260.895L235.361 250.351ZM250.543 245.141L246.152 242.994L235.609 264.554L240 266.701L250.543 245.141ZM252.211 253.035L251.993 265.033L252.585 265.043L253.176 264.996L252.211 253.035ZM258.358 252.539L259.323 264.5L266.136 263.95L269.138 257.81L258.358 252.539ZM259.546 250.109L270.326 255.381L273.473 248.947L269.302 243.123L259.546 250.109ZM256.037 245.21L245.971 251.742L246.121 251.973L246.281 252.197L256.037 245.21ZM259.961 236.478L253.216 226.552L252.649 226.938L252.129 227.386L259.961 236.478ZM260.355 236.323L262.331 248.159L262.401 248.148L262.471 248.135L260.355 236.323ZM267.111 235.112L265.034 223.293L265.015 223.297L264.995 223.301L267.111 235.112ZM271.844 243.013L264.56 233.476L263.882 233.994L263.284 234.602L271.844 243.013ZM271.496 243.132L271.39 231.132L271.203 231.134L271.015 231.142L271.496 243.132ZM265.917 243.356L265.436 231.365L258.282 231.652L255.137 238.084L265.917 243.356ZM264.592 246.065L253.812 240.793L250.539 247.485L255.084 253.387L264.592 246.065ZM268.167 250.708L258.66 258.03L258.913 258.358L259.188 258.669L268.167 250.708ZM263.861 259.513L266.697 271.174L266.869 271.132L267.041 271.084L263.861 259.513ZM256.865 261.215L259.571 272.905L259.636 272.89L259.7 272.875L256.865 261.215ZM255.238 247.437C256.705 248.155 259.602 250.035 260.95 253.962C262.297 257.889 261.165 261.152 260.448 262.619L238.888 252.076C237.98 253.932 236.802 257.535 238.249 261.752C239.696 265.969 242.838 268.089 244.694 268.997L255.238 247.437ZM260.448 262.619L262.298 258.836L240.738 248.292L238.888 252.076L260.448 262.619ZM262.298 258.836C261.855 259.742 260.917 261.317 259.107 262.699C257.102 264.231 254.595 265.08 251.993 265.033L252.43 241.037C245.682 240.914 242.031 245.648 240.738 248.292L262.298 258.836ZM253.176 264.996L259.323 264.5L257.393 240.577L251.246 241.074L253.176 264.996ZM269.138 257.81L270.326 255.381L248.766 244.838L247.578 247.267L269.138 257.81ZM269.302 243.123L265.794 238.224L246.281 252.197L249.789 257.096L269.302 243.123ZM266.104 238.679C267.271 240.477 267.924 242.62 267.915 244.845C267.906 246.937 267.319 248.568 266.821 249.586L245.261 239.043C243.792 242.046 242.903 247.013 245.971 251.742L266.104 238.679ZM266.821 249.586L270.465 242.136L248.905 231.592L245.261 239.043L266.821 249.586ZM270.465 242.136C270.127 242.827 269.343 244.234 267.792 245.57L252.129 227.386C250.378 228.894 249.411 230.558 248.905 231.592L270.465 242.136ZM266.705 246.403C265.293 247.363 263.776 247.918 262.331 248.159L258.379 224.487C256.639 224.777 254.859 225.436 253.216 226.552L266.705 246.403ZM262.471 248.135L269.228 246.924L264.995 223.301L258.238 224.511L262.471 248.135ZM269.188 246.931C268.967 246.97 268.569 247.031 268.046 247.058C267.564 247.084 266.664 247.099 265.539 246.898L269.753 223.271C267.519 222.872 265.665 223.183 265.034 223.293L269.188 246.931ZM265.539 246.898C264.609 246.732 263.656 246.433 262.724 245.978L273.268 224.418C272.117 223.855 270.931 223.481 269.753 223.271L265.539 246.898ZM262.724 245.978L268.4 248.753L278.943 227.193L273.268 224.418L262.724 245.978ZM268.4 248.753C266.933 248.036 264.035 246.155 262.688 242.228C261.34 238.301 262.472 235.038 263.19 233.571L284.75 244.114C285.658 242.258 286.835 238.655 285.388 234.438C283.941 230.221 280.8 228.101 278.943 227.193L268.4 248.753ZM263.19 233.571L261.397 237.238L282.957 247.781L284.75 244.114L263.19 233.571ZM261.397 237.238C261.465 237.097 261.659 236.71 261.989 236.212C262.159 235.955 262.424 235.579 262.789 235.151C263.138 234.742 263.722 234.116 264.56 233.476L279.128 252.549C280.741 251.317 281.666 249.966 282.004 249.456C282.444 248.79 282.758 248.187 282.957 247.781L261.397 237.238ZM263.284 234.602C266.224 231.61 269.696 231.147 271.39 231.132L271.602 255.131C273.607 255.114 277.31 254.572 280.404 251.423L263.284 234.602ZM271.015 231.142L265.436 231.365L266.397 255.346L271.977 255.122L271.015 231.142ZM255.137 238.084L253.812 240.793L275.372 251.337L276.697 248.627L255.137 238.084ZM255.084 253.387L258.66 258.03L277.675 243.386L274.099 238.743L255.084 253.387ZM259.188 258.669C257.64 256.923 256.527 254.552 256.362 251.839C256.21 249.34 256.912 247.414 257.442 246.331L279.002 256.874C279.707 255.433 280.488 253.179 280.318 250.382C280.134 247.371 278.906 244.731 277.147 242.747L259.188 258.669ZM257.442 246.331L253.935 253.502L275.495 264.045L279.002 256.874L257.442 246.331ZM253.935 253.502C254.443 252.463 255.254 251.262 256.5 250.182C257.77 249.081 259.221 248.344 260.682 247.942L267.041 271.084C271.103 269.968 273.967 267.171 275.495 264.045L253.935 253.502ZM261.026 247.853L254.029 249.554L259.7 272.875L266.697 271.174L261.026 247.853ZM254.158 249.524C256.924 248.884 259.378 249.462 261.054 250.281L250.51 271.841C252.934 273.026 256.109 273.707 259.571 272.905L254.158 249.524ZM261.054 250.281L255.238 247.437L244.694 268.997L250.51 271.841L261.054 250.281Z" fill="#8BD34C" mask="url(#path-3-outside-2_896_5878)"/>
</g>
<defs>
<filter id="filter0_d_896_5878" x="38.5224" y="37.7436" width="208.198" height="161.866" filterUnits="userSpaceOnUse" color-interpolation-filters="sRGB">
<feFlood flood-opacity="0" result="BackgroundImageFix"/>
<feColorMatrix in="SourceAlpha" type="matrix" values="0 0 0 0 0 0 0 0 0 0 0 0 0 0 0 0 0 0 127 0" result="hardAlpha"/>
<feOffset dy="3.44557"/>
<feGaussianBlur stdDeviation="5.16836"/>
<feComposite in2="hardAlpha" operator="out"/>
<feColorMatrix type="matrix" values="0 0 0 0 0 0 0 0 0 0 0 0 0 0 0 0 0 0 0.5 0"/>
<feBlend mode="normal" in2="BackgroundImageFix" result="effect1_dropShadow_896_5878"/>
<feBlend mode="normal" in="SourceGraphic" in2="effect1_dropShadow_896_5878" result="shape"/>
</filter>
<filter id="filter1_d_896_5878" x="18.8869" y="106.207" width="277.518" height="180.828" filterUnits="userSpaceOnUse" color-interpolation-filters="sRGB">
<feFlood flood-opacity="0" result="BackgroundImageFix"/>
<feColorMatrix in="SourceAlpha" type="matrix" values="0 0 0 0 0 0 0 0 0 0 0 0 0 0 0 0 0 0 127 0" result="hardAlpha"/>
<feOffset dy="3.44557"/>
<feGaussianBlur stdDeviation="5.16836"/>
<feComposite in2="hardAlpha" operator="out"/>
<feColorMatrix type="matrix" values="0 0 0 0 0 0 0 0 0 0 0 0 0 0 0 0 0 0 0.5 0"/>
<feBlend mode="normal" in2="BackgroundImageFix" result="effect1_dropShadow_896_5878"/>
<feBlend mode="normal" in="SourceGraphic" in2="effect1_dropShadow_896_5878" result="shape"/>
</filter>
</defs>
</svg>
