<svg width="24" height="25" viewBox="0 0 24 25" fill="none" xmlns="http://www.w3.org/2000/svg">
<path d="M4.07078 13.4998H2.05078C2.25078 15.5098 3.05078 17.3398 4.26078 18.8298L5.69078 17.3998C4.83078 16.2898 4.25078 14.9598 4.07078 13.4998Z" fill="#FAFAFA"/>
<path d="M5.69078 7.5998L4.26078 6.1698C3.05078 7.6598 2.25078 9.4898 2.05078 11.4998H4.07078C4.25078 10.0398 4.83078 8.70981 5.69078 7.5998Z" fill="#FAFAFA"/>
<path d="M11.0008 4.5698V2.5498C8.99078 2.7498 7.16078 3.5498 5.67078 4.7598L7.10078 6.1898C8.21078 5.3298 9.54078 4.7498 11.0008 4.5698Z" fill="#FAFAFA"/>
<path d="M18.3308 4.7598C16.8408 3.5498 15.0108 2.7498 13.0008 2.5498V4.5698C14.4608 4.7498 15.7908 5.3298 16.9008 6.1898L18.3308 4.7598Z" fill="#FAFAFA"/>
<path d="M18.3108 17.3998L19.7408 18.8298C20.9508 17.3498 21.7508 15.5098 21.9508 13.4998H19.9308C19.7508 14.9598 19.1708 16.2898 18.3108 17.3998Z" fill="#FAFAFA"/>
<path d="M19.9308 11.4998H21.9508C21.7508 9.4898 20.9508 7.6598 19.7408 6.1698L18.3108 7.5998C19.1708 8.70981 19.7508 10.0398 19.9308 11.4998Z" fill="#FAFAFA"/>
<path d="M13.0008 20.4298V22.4498C15.0108 22.2498 16.8408 21.4498 18.3308 20.2398L16.9008 18.8098C15.7908 19.6698 14.4608 20.2498 13.0008 20.4298Z" fill="#FAFAFA"/>
<path d="M5.67078 20.2398C7.15078 21.4498 8.99078 22.2498 11.0008 22.4498V20.4298C9.54078 20.2498 8.21078 19.6698 7.10078 18.8098L5.67078 20.2398Z" fill="#FAFAFA"/>
<path d="M12.0008 17.4998C14.7622 17.4998 17.0008 15.2612 17.0008 12.4998C17.0008 9.73838 14.7622 7.4998 12.0008 7.4998C9.23936 7.4998 7.00078 9.73838 7.00078 12.4998C7.00078 15.2612 9.23936 17.4998 12.0008 17.4998Z" fill="#FAFAFA"/>
</svg>
